<?xml version="1.0" encoding="iso-8859-1"?>
<!-- Generator: Adobe Illustrator 19.0.0, SVG Export Plug-In . SVG Version: 6.00 Build 0)  -->
<svg version="1.1" id="Capa_1" xmlns="http://www.w3.org/2000/svg" xmlns:xlink="http://www.w3.org/1999/xlink" x="0px" y="0px"
	 viewBox="0 0 512.001 512.001" style="enable-background:new 0 0 512.001 512.001;" xml:space="preserve">
<path style="fill:#FF4C4C;" d="M159.22,501.505l-23.19-64.449c-0.696-1.934-2.607-3.156-4.655-2.976l-68.231,6.004
	c-3.742,0.329-6.233-3.78-4.209-6.945L234.469,158.57l108.355,69.272L167.29,502.411C165.267,505.575,160.492,505.04,159.22,501.505
	z"/>
<path style="fill:#E1EFFB;" d="M305.324,203.868l-37.87-24.211L105.493,436.358l25.883-2.278c2.047-0.18,3.959,1.042,4.655,2.976
	l8.051,22.374L305.324,203.868z"/>
<path style="fill:#FF4C4C;" d="M352.78,501.505l23.19-64.449c0.696-1.934,2.607-3.156,4.655-2.976l68.231,6.004
	c3.742,0.329,6.233-3.78,4.209-6.945L277.531,158.57l-108.355,69.272l175.533,274.569
	C346.732,505.575,351.508,505.04,352.78,501.505z"/>
<path style="fill:#E1EFFB;" d="M206.673,203.868l37.87-24.211l161.961,256.701l-25.883-2.278c-2.047-0.18-3.959,1.042-4.655,2.976
	l-8.051,22.374L206.673,203.868z"/>
<path style="fill:#FFB125;" d="M274.256,15.558L274.256,15.558c7.438,8.156,19.383,10.389,29.265,5.471l0,0
	c13.019-6.479,28.79-0.369,34.046,13.19l0,0c3.989,10.292,14.321,16.689,25.312,15.673l0,0c14.48-1.339,26.98,10.056,26.983,24.598
	l0,0c0.002,11.038,7.325,20.735,17.941,23.758l0,0c13.986,3.982,21.525,19.123,16.275,32.684l0,0
	c-3.985,10.293-0.66,21.982,8.147,28.635l0,0c11.603,8.766,13.164,25.607,3.369,36.356l0,0c-7.435,8.159-8.556,20.259-2.747,29.645
	l0,0c7.653,12.366,3.024,28.633-9.992,35.118l0,0c-9.88,4.922-15.296,15.8-13.27,26.65l0,0c2.669,14.295-7.524,27.792-22.003,29.137
	l0,0c-10.991,1.021-19.971,9.207-22.002,20.057l0,0c-2.675,14.294-17.055,23.198-31.043,19.221l0,0
	c-10.617-3.019-21.949,1.371-27.761,10.755l0,0c-7.658,12.362-24.284,15.47-35.89,6.709l0,0c-8.81-6.65-20.962-6.65-29.772,0l0,0
	c-11.607,8.761-28.232,5.653-35.89-6.709l0,0c-5.813-9.383-17.144-13.773-27.761-10.755l0,0
	c-13.988,3.977-28.368-4.927-31.043-19.221l0,0c-2.03-10.85-11.011-19.036-22.002-20.057l0,0
	c-14.48-1.345-24.673-14.842-22.003-29.137l0,0c2.026-10.85-3.391-21.728-13.27-26.65l0,0c-13.016-6.485-17.645-22.753-9.992-35.118
	l0,0c5.809-9.386,4.688-21.486-2.747-29.645l0,0c-9.795-10.749-8.234-27.59,3.369-36.356l0,0
	c8.807-6.654,12.133-18.342,8.147-28.635l0,0c-5.25-13.561,2.289-28.702,16.275-32.684l0,0c10.616-3.023,17.939-12.72,17.941-23.758
	l0,0c0.003-14.542,12.502-25.937,26.983-24.598l0,0c10.991,1.016,21.323-5.381,25.312-15.673l0,0
	c5.256-13.559,21.027-19.669,34.046-13.19l0,0c9.882,4.918,21.827,2.685,29.265-5.471l0,0
	C247.543,4.813,264.457,4.813,274.256,15.558z"/>
<path style="fill:#FF901D;" d="M435.595,195.923L435.595,195.923c9.795-10.749,8.234-27.59-3.369-36.356l0,0
	c-8.807-6.654-12.133-18.342-8.147-28.635c5.25-13.561-2.289-28.702-16.275-32.684l0,0c-10.616-3.023-17.939-12.72-17.941-23.758
	l0,0c-0.003-14.542-12.502-25.937-26.983-24.598c-10.991,1.016-21.323-5.381-25.312-15.673
	c-5.256-13.559-21.027-19.669-34.046-13.19l0,0c-9.882,4.918-21.827,2.685-29.265-5.471c-9.799-10.745-26.713-10.745-36.512,0
	c-1.288,1.412-2.718,2.634-4.242,3.685c7.278,5.017,16.852,5.852,25.023,1.786l0,0c13.019-6.479,28.79-0.37,34.046,13.19
	c3.989,10.292,14.321,16.689,25.312,15.673c14.48-1.339,26.98,10.056,26.983,24.598l0,0c0.002,11.038,7.326,20.735,17.941,23.758
	l0,0c13.986,3.983,21.525,19.123,16.275,32.684c-3.985,10.293-0.66,21.982,8.147,28.635l0,0
	c11.603,8.766,13.164,25.607,3.369,36.356l0,0c-7.435,8.159-8.556,20.259-2.747,29.645c7.653,12.365,3.024,28.633-9.992,35.118l0,0
	c-9.88,4.922-15.296,15.8-13.27,26.65c2.669,14.295-7.523,27.792-22.003,29.137l0,0c-10.991,1.021-19.971,9.207-22.001,20.057l0,0
	c-2.675,14.294-17.055,23.198-31.043,19.221c-10.617-3.019-21.949,1.371-27.761,10.755c-0.457,0.738-0.949,1.441-1.467,2.113
	c3.75,0.664,7.382,2.187,10.573,4.596l0,0c11.607,8.761,28.232,5.653,35.89-6.709c5.813-9.383,17.144-13.773,27.761-10.755
	c13.988,3.977,28.368-4.927,31.043-19.221l0,0c2.03-10.85,11.011-19.036,22.001-20.057l0,0c14.48-1.345,24.673-14.842,22.003-29.137
	c-2.026-10.851,3.391-21.729,13.27-26.65l0,0c13.016-6.485,17.645-22.753,9.992-35.118
	C427.039,216.181,428.16,204.081,435.595,195.923z"/>
<circle style="fill:#E1EFFB;" cx="256" cy="192.85" r="135.44"/>
<path style="fill:#C3D8E5;" d="M256,57.412c-7.666,0-15.18,0.647-22.498,1.871C297.594,70,346.444,125.717,346.444,192.852
	s-48.85,122.852-112.942,133.569c7.318,1.224,14.832,1.871,22.498,1.871c74.801,0,135.44-60.638,135.44-135.44
	S330.801,57.412,256,57.412z"/>
<path style="fill:#61AFF6;" d="M343.011,167.823c-0.004-0.014-0.006-0.028-0.011-0.042l0,0c-0.275-0.851-0.994-1.558-2.023-1.707
	l-57.166-8.307l-25.566-51.802c-0.459-0.931-1.353-1.396-2.246-1.396c-0.893,0-1.787,0.465-2.246,1.396l-25.566,51.802
	l-57.166,8.307c-0.027,0.004-0.052,0.013-0.079,0.017c-0.099,0.018-0.198,0.036-0.291,0.064c-0.04,0.012-0.075,0.029-0.113,0.043
	c-0.077,0.027-0.155,0.052-0.227,0.086c-0.03,0.014-0.056,0.033-0.086,0.048c-0.076,0.039-0.152,0.078-0.223,0.124
	c-0.011,0.007-0.02,0.016-0.031,0.023c-0.085,0.058-0.168,0.119-0.244,0.186c-0.003,0.003-0.005,0.006-0.008,0.008
	c-0.082,0.073-0.16,0.151-0.231,0.234c-0.004,0.005-0.007,0.01-0.011,0.014c-0.215,0.254-0.378,0.547-0.479,0.86l0,0
	c-0.275,0.849-0.108,1.841,0.634,2.565L211,210.668l-9.765,56.936c-0.009,0.052-0.009,0.102-0.015,0.153
	c-0.008,0.075-0.02,0.151-0.022,0.224c-0.001,0.029,0.004,0.057,0.004,0.086c0.001,0.094,0.002,0.187,0.013,0.277
	c0.003,0.021,0.009,0.041,0.012,0.062c0.014,0.096,0.031,0.192,0.056,0.284c0.002,0.008,0.006,0.015,0.008,0.022
	c0.061,0.216,0.149,0.419,0.262,0.605c0.002,0.003,0.004,0.005,0.005,0.008c0.116,0.19,0.257,0.363,0.417,0.514
	c0.001,0.001,0.002,0.001,0.003,0.002c0.08,0.076,0.165,0.147,0.255,0.212l0,0l0,0c0.723,0.524,1.718,0.672,2.636,0.19L256,243.363
	l51.131,26.881c0.115,0.06,0.231,0.111,0.347,0.152c0.115,0.04,0.229,0.071,0.344,0.094c0.002,0,0.004,0.001,0.006,0.002
	c0.105,0.021,0.209,0.032,0.314,0.038c0.012,0.001,0.024,0.004,0.036,0.004c0.096,0.005,0.192,0,0.286-0.006
	c0.019-0.001,0.039,0.001,0.058-0.001c0.094-0.009,0.186-0.026,0.277-0.045c0.019-0.004,0.039-0.005,0.058-0.009
	c0.213-0.05,0.417-0.129,0.609-0.231c0.006-0.003,0.012-0.005,0.018-0.008c0.08-0.043,0.155-0.093,0.23-0.145
	c0.017-0.012,0.036-0.021,0.053-0.034l0,0c0.724-0.525,1.173-1.427,0.998-2.451L301,210.668l0,0l41.366-40.322l0,0
	c0.093-0.091,0.177-0.185,0.252-0.283c0.024-0.032,0.042-0.066,0.064-0.098c0.047-0.068,0.096-0.135,0.135-0.205
	c0.054-0.096,0.098-0.195,0.137-0.295c0.003-0.008,0.008-0.016,0.011-0.024c0.031-0.082,0.053-0.166,0.075-0.25
	c0.007-0.027,0.018-0.053,0.024-0.08c0.022-0.096,0.035-0.193,0.045-0.291c0.002-0.015,0.006-0.03,0.007-0.045
	C343.143,168.452,343.105,168.129,343.011,167.823z"/>
<g>
	<path style="fill:#49A0E8;" d="M254.041,153.419l29.759,4.324l-25.554-51.778c-0.459-0.931-1.353-1.396-2.246-1.396
		c-0.893,0-1.787,0.466-2.246,1.396l-17.039,34.526l0.261,0.53C240.277,147.71,246.659,152.347,254.041,153.419z"/>
	<path style="fill:#49A0E8;" d="M343.011,167.823c-0.004-0.014-0.006-0.028-0.01-0.042l0,0c-0.275-0.851-0.994-1.558-2.023-1.707
		l-36.225-5.264l-33.797,32.944l10.834,63.167l25.341,13.323c0.115,0.06,0.231,0.111,0.347,0.152
		c0.115,0.04,0.229,0.071,0.344,0.094c0.002,0,0.004,0.001,0.006,0.002c0.105,0.021,0.209,0.032,0.314,0.038
		c0.012,0.001,0.024,0.004,0.036,0.004c0.096,0.005,0.192,0,0.286-0.006c0.019-0.001,0.039,0,0.058-0.001
		c0.094-0.009,0.186-0.026,0.277-0.045c0.019-0.004,0.039-0.005,0.058-0.01c0.213-0.05,0.417-0.129,0.609-0.231
		c0.006-0.003,0.012-0.005,0.018-0.008c0.08-0.043,0.155-0.093,0.229-0.145c0.017-0.012,0.036-0.021,0.053-0.034
		c0.723-0.525,1.173-1.427,0.998-2.45L301,210.668l0,0l41.366-40.322l0,0c0.093-0.091,0.177-0.185,0.252-0.283
		c0.024-0.032,0.042-0.066,0.064-0.098c0.047-0.068,0.096-0.135,0.135-0.205c0.054-0.096,0.098-0.195,0.137-0.295
		c0.003-0.008,0.008-0.016,0.011-0.024c0.031-0.082,0.053-0.166,0.075-0.25c0.007-0.027,0.018-0.053,0.024-0.08
		c0.022-0.096,0.035-0.194,0.045-0.291c0.001-0.015,0.005-0.03,0.007-0.045C343.143,168.452,343.105,168.129,343.011,167.823z"/>
</g>
<path d="M120.773,182.096c4.098,0.543,7.879-2.33,8.43-6.435C137.678,112.524,192.189,64.912,256,64.912
	c63.827,0,118.339,47.625,126.801,110.78c0.505,3.767,3.724,6.504,7.423,6.504c0.332,0,0.668-0.022,1.006-0.067
	c4.105-0.55,6.987-4.324,6.437-8.429c-4.557-34.01-21.311-65.298-47.176-88.102C324.39,62.586,290.833,49.913,256,49.913
	c-34.827,0-68.38,12.669-94.478,35.674c-25.863,22.796-42.619,54.077-47.183,88.079C113.787,177.77,116.668,181.544,120.773,182.096
	z"/>
<path d="M397.85,210.58c0.509-4.11-2.411-7.855-6.522-8.364c-4.098-0.49-7.854,2.412-8.364,6.522
	C375.058,272.62,320.475,320.793,256,320.793c-64.522,0-119.11-48.213-126.976-112.147c-0.506-4.11-4.241-7.03-8.359-6.528
	c-4.11,0.506-7.033,4.249-6.527,8.36c8.79,71.44,69.777,125.314,141.863,125.314C328.033,335.792,389.015,281.963,397.85,210.58z"/>
<path d="M459.383,429.099l-67.57-105.692c7.605-1.576,14.463-5.873,19.185-12.125c5.445-7.21,7.618-16.44,5.959-25.322
	c-1.404-7.518,2.396-15.151,9.242-18.562c8.087-4.029,14.143-11.323,16.616-20.014c2.472-8.69,1.163-18.081-3.591-25.762
	c-4.025-6.504-3.238-14.995,1.914-20.648c6.084-6.678,9.097-15.668,8.263-24.664c-0.834-8.997-5.447-17.281-12.655-22.727
	c-6.103-4.61-8.436-12.811-5.674-19.944c3.262-8.425,2.823-17.896-1.204-25.984s-11.32-14.146-20.011-16.622
	c-7.356-2.094-12.494-8.898-12.496-16.546c-0.002-9.035-3.833-17.708-10.51-23.795s-15.671-9.102-24.662-8.269
	c-7.62,0.69-14.865-3.784-17.629-10.916c-3.266-8.424-9.971-15.128-18.396-18.392c-8.426-3.264-17.896-2.826-25.985,1.199
	c-6.848,3.411-15.228,1.841-20.381-3.81h-0.001C273.709,3.829,265.035,0,256,0c-9.035,0-17.709,3.829-23.797,10.504
	c-5.154,5.65-13.535,7.218-20.383,3.811c-8.088-4.026-17.56-4.465-25.984-1.2c-8.425,3.263-15.13,9.967-18.396,18.392
	c-2.764,7.132-10.015,11.61-17.629,10.916c-8.995-0.839-17.986,2.181-24.663,8.269c-6.677,6.086-10.507,14.76-10.509,23.796
	c-0.001,7.648-5.14,14.452-12.496,16.546c-8.69,2.474-15.984,8.532-20.011,16.621c-4.027,8.088-4.466,17.559-1.204,25.984
	c2.762,7.132,0.428,15.334-5.674,19.944c-7.209,5.447-11.822,13.73-12.655,22.727c-0.834,8.996,2.179,17.986,8.263,24.663
	c5.151,5.655,5.938,14.145,1.913,20.649c-4.755,7.683-6.063,17.073-3.591,25.763c2.473,8.69,8.529,15.984,16.616,20.013
	c6.846,3.411,10.647,11.044,9.243,18.562c-1.659,8.882,0.513,18.111,5.958,25.321c4.722,6.254,11.581,10.55,19.187,12.126
	l-67.57,105.692c-2.488,3.89-2.546,8.761-0.152,12.71c2.392,3.948,6.738,6.158,11.337,5.746l65.948-5.803l22.414,62.293
	c1.563,4.345,5.385,7.365,9.974,7.879c0.46,0.052,0.917,0.077,1.371,0.077c4.079,0,7.863-2.049,10.1-5.549L256,377.575
	l82.39,128.876c2.238,3.501,6.022,5.549,10.101,5.549c0.454,0,0.912-0.025,1.372-0.077c4.588-0.516,8.41-3.535,9.973-7.879
	l22.414-62.293l65.948,5.803c4.602,0.405,8.944-1.796,11.338-5.746C461.928,437.859,461.87,432.989,459.383,429.099z
	 M68.511,432.084l65.878-103.047c2.344,2.383,4.016,5.439,4.658,8.873c1.211,6.472,4.393,12.375,9,16.945l-46.914,74.358
	L68.511,432.084z M145.936,442.435l-2.849-7.917c-1.847-5.134-6.942-8.393-12.369-7.909l-10.808,0.951l40.961-64.921
	c5.996,1.919,12.492,2.073,18.642,0.325c5.19-1.475,10.67-0.367,14.866,2.691L145.936,442.435z M164.229,493.276l-11.852-32.94
	l52.314-82.916c4.363,3.923,9.757,6.638,15.62,7.734c1.956,0.365,3.928,0.545,5.893,0.545c2.482,0,4.947-0.3,7.351-0.862
	L164.229,493.276z M260.678,361.114c-0.484-0.107-0.978-0.165-1.475-0.175c-2.132-0.211-4.277-0.211-6.409,0
	c-0.496,0.01-0.99,0.068-1.473,0.175c-5.236,0.76-10.319,2.789-14.726,6.116c-3.909,2.95-8.715,4.081-13.529,3.18
	c-4.815-0.899-8.888-3.689-11.467-7.853c-0.472-0.763-0.983-1.491-1.511-2.202c-0.149-0.216-0.308-0.426-0.48-0.627
	c-6.152-7.874-15.638-12.405-25.468-12.405c-2.906,0-5.842,0.395-8.728,1.216c-4.712,1.339-9.602,0.655-13.766-1.923
	c-4.165-2.578-6.954-6.65-7.855-11.464c-1.921-10.265-8.728-18.744-17.798-23.104c-0.462-0.27-0.941-0.485-1.431-0.647
	c-2.964-1.251-6.136-2.087-9.451-2.395c-4.877-0.453-9.189-2.855-12.141-6.764c-2.952-3.91-4.083-8.714-3.184-13.53
	c2.627-14.07-4.486-28.356-17.298-34.739c-4.384-2.184-7.537-5.982-8.878-10.693c-1.34-4.712-0.659-9.601,1.919-13.765
	c7.533-12.171,6.061-28.062-3.581-38.643c-3.299-3.62-4.867-8.3-4.415-13.178c0.452-4.878,2.853-9.19,6.762-12.143
	c11.421-8.629,15.789-23.978,10.62-37.327c-1.768-4.568-1.54-9.498,0.643-13.884s5.981-7.539,10.692-8.88
	c13.767-3.92,23.385-16.655,23.387-30.969c0.001-4.899,1.995-9.414,5.615-12.715c3.62-3.3,8.298-4.869,13.178-4.419
	c14.246,1.331,27.822-7.081,32.995-20.429c1.77-4.568,5.261-8.058,9.829-9.827c4.566-1.768,9.498-1.543,13.884,0.642
	c12.816,6.377,28.501,3.444,38.147-7.132c3.301-3.619,7.816-5.612,12.715-5.612c4.899,0,9.414,1.993,12.714,5.612
	c9.648,10.577,25.333,13.511,38.147,7.131c4.386-2.182,9.318-2.409,13.884-0.641c4.568,1.769,8.059,5.259,9.829,9.826
	c5.172,13.347,18.731,21.747,32.995,20.43c4.883-0.451,9.558,1.119,13.177,4.419c3.621,3.3,5.615,7.816,5.616,12.715
	c0.004,14.315,9.621,27.049,23.387,30.968c4.712,1.342,8.509,4.496,10.692,8.881s2.412,9.316,0.643,13.884
	c-5.169,13.349-0.801,28.699,10.62,37.327c3.909,2.953,6.31,7.265,6.762,12.143s-1.116,9.558-4.416,13.178
	c-9.641,10.58-11.113,26.47-3.581,38.643c2.578,4.166,3.259,9.054,1.919,13.765s-4.493,8.509-8.878,10.693
	c-12.812,6.383-19.925,20.669-17.298,34.739c0.899,4.816-0.231,9.62-3.183,13.53c-2.952,3.909-7.264,6.311-12.142,6.764
	c-3.314,0.308-6.486,1.144-9.45,2.395c-0.489,0.162-0.966,0.376-1.427,0.645c-9.072,4.359-15.881,12.838-17.802,23.105
	c-0.901,4.815-3.691,8.887-7.856,11.466c-4.166,2.579-9.054,3.261-13.765,1.922c-12.617-3.59-26.155,0.972-34.134,11.125
	c-0.103,0.118-0.199,0.241-0.294,0.364c-0.62,0.813-1.214,1.65-1.76,2.531c-2.579,4.164-6.652,6.953-11.467,7.853
	c-4.815,0.899-9.62-0.229-13.53-3.181C270.997,363.903,265.914,361.874,260.678,361.114z M347.77,493.276l-69.316-108.424
	c4.304,1.004,8.813,1.129,13.236,0.302c5.861-1.096,11.255-3.81,15.617-7.732l52.315,82.916L347.77,493.276z M381.279,426.609
	c-5.419-0.464-10.519,2.775-12.366,7.909l-2.85,7.922l-48.444-76.781c4.196-3.059,9.677-4.169,14.867-2.693
	c6.15,1.748,12.645,1.594,18.64-0.325l40.96,64.92L381.279,426.609z M410.863,429.213l-46.913-74.355
	c4.607-4.571,7.79-10.474,9.002-16.947c0.643-3.434,2.315-6.49,4.658-8.873l65.879,103.047L410.863,429.213z"/>
<path d="M348.596,174.592c0.117-0.155,0.225-0.31,0.327-0.467c0.146-0.215,0.286-0.434,0.412-0.655
	c0.022-0.039,0.045-0.079,0.066-0.119c0.161-0.296,0.31-0.604,0.442-0.921c0.057-0.129,0.109-0.261,0.158-0.394
	c0.098-0.265,0.181-0.53,0.255-0.8c0.047-0.163,0.092-0.333,0.126-0.484c0.072-0.323,0.128-0.649,0.168-0.992
	c0.016-0.117,0.028-0.235,0.038-0.352c0.104-1.209-0.016-2.418-0.352-3.594c-0.031-0.115-0.065-0.23-0.102-0.344
	c-1.184-3.653-4.279-6.266-8.079-6.818l-53.264-7.741l-23.82-48.264c-1.697-3.441-5.135-5.579-8.972-5.579
	c-3.835,0-7.272,2.137-8.971,5.577l-23.821,48.265l-53.228,7.736c-0.166,0.022-0.348,0.056-0.526,0.093
	c-0.311,0.06-0.622,0.133-0.934,0.224c-0.208,0.062-0.409,0.131-0.607,0.207c-0.256,0.093-0.503,0.191-0.689,0.278
	c-0.207,0.094-0.407,0.194-0.602,0.304c-0.245,0.131-0.476,0.265-0.645,0.376c-0.126,0.08-0.254,0.167-0.379,0.258
	c-0.3,0.211-0.576,0.429-0.838,0.661c-0.042,0.037-0.084,0.075-0.125,0.113c-0.303,0.277-0.588,0.572-0.85,0.879
	c-0.035,0.042-0.07,0.083-0.104,0.125c-0.811,0.981-1.422,2.092-1.815,3.307c-1.179,3.644-0.208,7.57,2.535,10.244l38.543,37.569
	l-9.101,53.062c-0.038,0.22-0.064,0.437-0.084,0.655c-0.03,0.264-0.05,0.534-0.058,0.853c-0.002,0.136,0,0.286,0.006,0.436
	c0.005,0.263,0.02,0.585,0.063,0.939c0.017,0.145,0.041,0.302,0.068,0.456c0.055,0.329,0.123,0.652,0.208,0.967
	c0.025,0.092,0.051,0.183,0.08,0.273c0.002,0.008,0.005,0.016,0.008,0.024c0.241,0.788,0.578,1.544,1.003,2.247
	c0.036,0.059,0.071,0.116,0.108,0.174c0.434,0.684,0.948,1.312,1.531,1.871c0.012,0.011,0.023,0.021,0.035,0.033
	c0.308,0.293,0.642,0.572,1.024,0.852c1.751,1.268,3.799,1.913,5.86,1.913c1.59,0,3.188-0.384,4.665-1.159L256,251.835
	l47.643,25.048c0.418,0.22,0.857,0.412,1.355,0.591c0.387,0.136,0.784,0.248,1.184,0.335c0.071,0.016,0.143,0.03,0.215,0.045
	c0.357,0.069,0.719,0.118,1.1,0.148c0.102,0.009,0.202,0.017,0.304,0.021c0.336,0.017,0.671,0.014,1.005-0.004
	c0.142-0.005,0.285-0.015,0.418-0.027c0.347-0.032,0.694-0.085,0.986-0.145c0.117-0.021,0.234-0.046,0.35-0.072
	c0.805-0.187,1.589-0.478,2.332-0.862c0.059-0.029,0.116-0.06,0.174-0.091c0.255-0.139,0.505-0.291,0.747-0.452
	c0.041-0.026,0.08-0.052,0.116-0.076c0.083-0.056,0.165-0.112,0.246-0.171c3.103-2.254,4.63-6.001,3.983-9.787l-9.099-53.05
	l38.555-37.581C347.966,175.359,348.294,174.988,348.596,174.592z M295.765,205.297c-1.767,1.723-2.574,4.206-2.156,6.638
	l8.054,46.961l-42.173-22.172c-1.093-0.574-2.291-0.861-3.49-0.861s-2.397,0.287-3.49,0.861l-42.173,22.172l8.055-46.961
	c0.417-2.432-0.389-4.915-2.157-6.638l-34.119-33.257l47.151-6.852c2.443-0.354,4.554-1.889,5.646-4.102L256,118.36l21.087,42.726
	c1.093,2.214,3.204,3.748,5.647,4.102l47.15,6.852L295.765,205.297z"/>
<g>
</g>
<g>
</g>
<g>
</g>
<g>
</g>
<g>
</g>
<g>
</g>
<g>
</g>
<g>
</g>
<g>
</g>
<g>
</g>
<g>
</g>
<g>
</g>
<g>
</g>
<g>
</g>
<g>
</g>
</svg>
