<?xml version="1.0" encoding="iso-8859-1"?>
<!-- Generator: Adobe Illustrator 19.0.0, SVG Export Plug-In . SVG Version: 6.00 Build 0)  -->
<svg version="1.1" id="Capa_1" xmlns="http://www.w3.org/2000/svg" xmlns:xlink="http://www.w3.org/1999/xlink" x="0px" y="0px"
	 viewBox="0 0 512 512" style="enable-background:new 0 0 512 512;" xml:space="preserve">
<path style="fill:#10C4C4;" d="M500.932,331.753H11.068c-2.338,0-4.043-2.215-3.443-4.475l18.671-70.364
	c0.159-0.599,0.159-1.228,0-1.827L7.625,184.723c-0.6-2.26,1.104-4.475,3.443-4.475h489.865c2.339,0,4.043,2.215,3.443,4.475
	l-18.671,70.364c-0.159,0.599-0.159,1.228,0,1.827l18.671,70.364C504.975,329.538,503.271,331.753,500.932,331.753z"/>
<path style="fill:#04AFAF;" d="M485.704,256.913c-0.159-0.599-0.159-1.229,0-1.827l18.671-70.364c0.6-2.26-1.104-4.476-3.443-4.476
	h-31.51L449.321,256l20.101,75.753h31.51c2.339,0,4.043-2.215,3.443-4.476L485.704,256.913z"/>
<path style="fill:#FFB125;" d="M397.251,147.45L397.251,147.45c0.691,11.893,7.421,22.604,17.837,28.387l0,0
	c15.429,8.567,21.996,27.332,15.274,43.65l0,0c-4.537,11.015-3.121,23.586,3.754,33.314l0,0
	c10.184,14.413,7.958,34.169-5.178,45.954l0,0c-8.867,7.955-13.045,19.896-11.073,31.644l0,0
	c2.922,17.404-7.655,34.238-24.604,39.157l0,0c-11.441,3.32-20.386,12.265-23.706,23.706l0,0
	c-4.918,16.949-21.752,27.526-39.157,24.604l0,0c-11.748-1.973-23.689,2.205-31.644,11.073l0,0
	c-11.785,13.136-31.541,15.362-45.954,5.178l0,0c-9.729-6.875-22.3-8.291-33.314-3.754l0,0c-16.318,6.722-35.083,0.156-43.65-15.274
	l0,0c-5.783-10.415-16.494-17.146-28.387-17.837l0,0c-17.618-1.024-31.676-15.082-32.7-32.7l0,0
	c-0.691-11.893-7.421-22.604-17.837-28.387l0,0c-15.429-8.567-21.996-27.332-15.274-43.65l0,0
	c4.537-11.015,3.121-23.586-3.754-33.314l0,0c-10.184-14.413-7.958-34.169,5.178-45.954l0,0
	c8.867-7.955,13.045-19.896,11.073-31.644l0,0c-2.922-17.404,7.655-34.238,24.604-39.157l0,0
	c11.441-3.32,20.386-12.265,23.706-23.706l0,0c4.918-16.949,21.752-27.526,39.157-24.604l0,0
	c11.748,1.973,23.689-2.205,31.644-11.073l0,0c11.785-13.136,31.541-15.362,45.954-5.178l0,0c9.729,6.875,22.3,8.291,33.315,3.754
	l0,0c16.318-6.722,35.083-0.156,43.65,15.274l0,0c5.783,10.415,16.494,17.146,28.387,17.837l0,0
	C382.169,115.773,396.227,129.831,397.251,147.45z"/>
<path style="fill:#FF901D;" d="M434.115,252.801L434.115,252.801c-6.875-9.729-8.291-22.3-3.754-33.315l0,0
	c6.722-16.318,0.156-35.083-15.274-43.65l0,0c-10.415-5.783-17.145-16.494-17.837-28.387l0,0c-1.024-17.618-15.082-31.676-32.7-32.7
	l0,0c-11.893-0.691-22.604-7.422-28.387-17.837l0,0c-8.567-15.429-27.332-21.996-43.65-15.274l0,0
	c-4.082,1.681-8.377,2.541-12.662,2.612c4.892,3.034,9.087,7.314,12.056,12.661l0,0c5.783,10.415,16.494,17.146,28.387,17.837l0,0
	c17.618,1.024,31.676,15.082,32.7,32.7l0,0c0.691,11.893,7.422,22.604,17.837,28.387l0,0c15.429,8.567,21.996,27.332,15.274,43.65
	l0,0c-4.538,11.015-3.121,23.586,3.754,33.315l0,0c10.185,14.413,7.959,34.169-5.178,45.954l0,0
	c-8.867,7.955-13.045,19.896-11.073,31.644l0,0c2.922,17.404-7.655,34.238-24.604,39.157l0,0
	c-11.441,3.32-20.386,12.265-23.706,23.706l0,0c-4.918,16.949-21.752,27.526-39.157,24.604l0,0
	c-11.748-1.973-23.689,2.205-31.644,11.073l0,0c-1.227,1.368-2.544,2.61-3.929,3.739c0.757,0.452,1.504,0.925,2.23,1.439l0,0
	c14.413,10.184,34.169,7.958,45.954-5.178l0,0c7.955-8.867,19.896-13.045,31.644-11.073l0,0
	c17.404,2.922,34.238-7.655,39.157-24.604l0,0c3.32-11.441,12.265-20.386,23.706-23.706l0,0
	c16.949-4.918,27.526-21.752,24.604-39.157l0,0c-1.973-11.748,2.205-23.689,11.073-31.644l0,0
	C442.073,286.969,444.299,267.212,434.115,252.801z"/>
<circle style="fill:#E1EFFB;" cx="256" cy="256" r="142.22"/>
<path style="fill:#C3D8E5;" d="M256,113.783c-8.05,0-15.939,0.679-23.624,1.964C299.675,127.001,350.97,185.506,350.97,256
	s-51.295,129-118.594,140.253c7.685,1.285,15.574,1.964,23.624,1.964c78.545,0,142.218-63.673,142.218-142.218
	S334.545,113.783,256,113.783z"/>
<circle style="fill:#E1EFFB;" cx="256" cy="256" r="142.22"/>
<path style="fill:#C3D8E5;" d="M256,113.783c-8.05,0-15.939,0.679-23.624,1.964C299.675,127.001,350.97,185.506,350.97,256
	s-51.295,129-118.594,140.253c7.685,1.285,15.574,1.964,23.624,1.964c78.545,0,142.218-63.673,142.218-142.218
	S334.545,113.783,256,113.783z"/>
<path style="fill:#FCE0A2;" d="M342.063,207.049h-55.98h-20.576l10.389-25.37c4.213-8.705,2.672-19.102-3.886-26.211l0,0
	c-4.85-5.258-13.365-4.499-17.208,1.535l-35.39,58.496c-1.326,2.081-3.624,3.341-6.092,3.341h-18.401v87.478h21.159
	c0.793,0,1.58,0.131,2.331,0.386l28.147,9.596c10.897,3.715,22.332,5.61,33.845,5.61h10.212h27.084h8.054
	c6.009,0,10.879-4.871,10.879-10.879v-6.957c0-6.009-4.871-10.879-10.879-10.879h6.973c6.009,0,10.879-4.871,10.879-10.879v-6.957
	c0-6.009-4.871-10.879-10.879-10.879h5.542c6.009,0,10.879-4.871,10.879-10.879v-6.957c0-6.009-4.871-10.879-10.879-10.879h3.796
	c6.009,0,10.879-4.871,10.879-10.879v-6.957C352.943,211.921,348.072,207.049,342.063,207.049z"/>
<path style="fill:#FF4C4C;" d="M206.266,316.436H174.89c-3.026,0-5.479-2.453-5.479-5.479v-95.884c0-3.037,2.471-5.495,5.508-5.479
	l31.376,0.166c3.014,0.016,5.45,2.464,5.45,5.479v95.718C211.744,313.983,209.291,316.436,206.266,316.436z"/>
<g>
	<path style="fill:#F2CA91;" d="M338.267,235.765h-37.08l0,0c0,7.93,6.428,14.358,14.358,14.358h22.722
		c4.709,0,8.719,2.992,10.233,7.179c0.418-1.155,0.647-2.401,0.647-3.701v-6.957C349.147,240.635,344.276,235.765,338.267,235.765z"
		/>
	<path style="fill:#F2CA91;" d="M332.726,264.48h-31.538l0,0c0,7.93,6.428,14.358,14.358,14.358h17.181
		c4.709,0,8.719,2.992,10.233,7.179c0.418-1.155,0.647-2.401,0.647-3.701v-6.957C343.605,269.352,338.734,264.48,332.726,264.48z"/>
	<path style="fill:#F2CA91;" d="M325.753,293.197h-24.565l0,0c0,7.93,6.428,14.358,14.358,14.358h10.208
		c4.709,0,8.719,2.992,10.233,7.179c0.418-1.155,0.647-2.401,0.647-3.701v-6.957C336.632,298.066,331.762,293.197,325.753,293.197z"
		/>
</g>
<path d="M493.22,256l18.404-69.354c0.888-3.346,0.187-6.838-1.924-9.582c-2.111-2.744-5.307-4.317-8.768-4.317H456.34
	c-4.143,0-7.5,3.357-7.5,7.5s3.357,7.5,7.5,7.5h39.473l-17.361,65.427c-0.488,1.85-0.488,3.805,0.003,5.665l17.358,65.416h-39.782
	c-4.143,0-7.5,3.357-7.5,7.5s3.357,7.5,7.5,7.5h44.901c3.462,0,6.657-1.573,8.768-4.317c2.11-2.744,2.811-6.236,1.924-9.582
	L493.22,256z"/>
<path d="M62.848,180.247c0-4.143-3.357-7.5-7.5-7.5h-44.28c-3.462,0-6.657,1.573-8.768,4.317c-2.11,2.744-2.811,6.236-1.924,9.582
	L18.78,256L0.376,325.354c-0.888,3.346-0.187,6.838,1.924,9.582s5.307,4.317,8.768,4.317h44.218c4.143,0,7.5-3.357,7.5-7.5
	s-3.357-7.5-7.5-7.5H16.187l17.361-65.427c0.488-1.85,0.488-3.805-0.003-5.665l-17.358-65.416h39.161
	C59.49,187.747,62.848,184.39,62.848,180.247z"/>
<path d="M114.056,244.335c4.102,0.55,7.881-2.329,8.432-6.435c4.299-32.034,20.093-61.51,44.472-82.999
	c24.594-21.678,56.217-33.618,89.041-33.618c32.83,0,64.456,11.943,89.052,33.628c24.381,21.495,40.172,50.979,44.465,83.02
	c0.505,3.768,3.725,6.505,7.424,6.505c0.332,0,0.668-0.022,1.006-0.067c4.105-0.55,6.987-4.324,6.437-8.43
	c-4.772-35.622-22.321-68.394-49.412-92.28c-27.338-24.102-62.487-37.376-98.972-37.376c-36.478,0-71.623,13.27-98.959,37.366
	c-27.088,23.877-44.64,56.641-49.42,92.254C107.07,240.008,109.951,243.784,114.056,244.335z"/>
<path d="M398.054,266.205c-4.097-0.499-7.854,2.411-8.364,6.522c-8.326,67.266-65.801,117.99-133.69,117.99
	c-67.94,0-125.419-50.767-133.703-118.087c-0.505-4.111-4.255-7.031-8.359-6.528c-4.111,0.506-7.033,4.249-6.527,8.36
	c9.206,74.827,73.086,131.255,148.59,131.255c75.448,0,139.322-56.381,148.577-131.148
	C405.086,270.46,402.166,266.714,398.054,266.205z"/>
<path d="M360.443,217.928c0-10.135-8.245-18.38-18.38-18.38h-65.38l6.072-14.825c5.46-11.511,3.419-24.963-5.231-34.339
	c-3.902-4.231-9.432-6.359-15.161-5.852c-5.732,0.511-10.794,3.588-13.886,8.442c-0.03,0.049-0.061,0.098-0.091,0.147
	l-32.401,53.556c-2.367-2.683-5.811-4.396-9.651-4.416l-31.376-0.166c-0.023,0-0.046,0-0.069,0c-3.454,0-6.702,1.34-9.152,3.778
	c-2.467,2.453-3.825,5.721-3.825,9.2v95.884c0,7.156,5.822,12.978,12.978,12.978h31.376c5.848,0,10.801-3.889,12.419-9.215
	l25.454,8.678c11.701,3.989,23.903,6.012,36.265,6.012h45.35c10.135,0,18.38-8.245,18.38-18.379v-6.957
	c0-2.284-0.419-4.473-1.184-6.492c4.915-3.303,8.156-8.914,8.156-15.267v-6.956c0-2.591-0.539-5.058-1.51-7.295
	c4.29-3.368,7.052-8.6,7.052-14.465v-6.957c0-3.009-0.727-5.851-2.015-8.36c3.575-3.355,5.81-8.121,5.81-13.398L360.443,217.928
	L360.443,217.928z M204.245,218.84v87.478v2.618h-27.334v-91.831l27.334,0.145V218.84z M345.443,224.885
	c0,1.863-1.517,3.38-3.38,3.38h-3.796h-37.08c-4.143,0-7.5,3.357-7.5,7.5s3.357,7.5,7.5,7.5h37.08c1.863,0,3.38,1.516,3.38,3.379
	v6.957c0,1.863-1.517,3.38-3.38,3.38h-5.542h-31.538c-4.143,0-7.5,3.357-7.5,7.5s3.357,7.5,7.5,7.5h31.538
	c1.863,0,3.38,1.517,3.38,3.38v6.956c0,1.863-1.517,3.38-3.38,3.38h-6.973h-24.565c-4.143,0-7.5,3.357-7.5,7.5s3.357,7.5,7.5,7.5
	h24.565c1.863,0,3.38,1.517,3.38,3.38v6.957c0,1.863-1.517,3.379-3.38,3.379h-45.35c-10.713,0-21.286-1.753-31.425-5.209
	l-28.145-9.597c-0.522-0.178-1.052-0.326-1.588-0.443v-74.056c2.626-1.15,4.893-3.066,6.494-5.577
	c0.031-0.049,0.062-0.099,0.092-0.148l35.333-58.401c0.781-1.184,1.918-1.453,2.532-1.508c0.617-0.054,1.813,0.011,2.803,1.082
	c4.498,4.877,5.537,11.887,2.647,17.859c-0.067,0.14-0.131,0.281-0.189,0.424l-10.389,25.369c-0.947,2.313-0.68,4.946,0.713,7.022
	c1.393,2.075,3.727,3.32,6.227,3.32h76.555c1.863,0,3.38,1.517,3.38,3.38L345.443,224.885L345.443,224.885z"/>
<path d="M437.296,222.342c8.172-19.838,0.188-42.65-18.568-53.063c-8.215-4.561-13.444-12.886-13.99-22.265
	c-1.244-21.419-18.334-38.508-39.751-39.752c-9.381-0.546-17.705-5.775-22.265-13.99c-10.414-18.757-33.227-26.737-53.065-18.568
	c-8.685,3.579-18.455,2.479-26.129-2.943c-17.521-12.382-41.537-9.675-55.865,6.294c-6.274,6.994-15.558,10.24-24.819,8.684
	c-21.158-3.554-41.621,9.307-47.602,29.91c-2.618,9.024-9.569,15.975-18.593,18.593c-20.603,5.979-33.461,26.444-29.91,47.602
	c1.556,9.266-1.69,18.545-8.684,24.819c-15.969,14.328-18.675,38.344-6.294,55.865c5.422,7.674,6.522,17.442,2.943,26.129
	c-8.172,19.838-0.188,42.65,18.568,53.063c8.215,4.561,13.444,12.886,13.99,22.265c1.244,21.419,18.334,38.508,39.751,39.752
	c9.381,0.546,17.705,5.775,22.265,13.99c10.414,18.757,33.227,26.737,53.065,18.568c8.685-3.58,18.456-2.478,26.129,2.943
	c7.378,5.214,15.905,7.753,24.378,7.752c11.649-0.001,23.193-4.801,31.488-14.046c6.274-6.994,15.56-10.241,24.819-8.684
	c21.154,3.552,41.621-9.307,47.602-29.91c2.618-9.024,9.569-15.975,18.593-18.593c20.603-5.979,33.461-26.444,29.91-47.602
	c-1.556-9.266,1.69-18.545,8.684-24.819c15.969-14.328,18.676-38.344,6.294-55.865C434.818,240.799,433.717,231.03,437.296,222.342z
	 M423.928,293.171c-10.84,9.725-15.871,24.106-13.46,38.469c2.292,13.65-6.005,26.854-19.299,30.711
	c-13.985,4.06-24.758,14.833-28.818,28.818c-3.857,13.295-17.059,21.592-30.711,19.299c-14.365-2.412-28.744,2.62-38.469,13.46
	c-9.243,10.305-24.739,12.051-36.043,4.061c-7.277-5.143-15.769-7.776-24.349-7.776c-5.443,0-10.923,1.061-16.149,3.214
	c-12.798,5.27-27.517,0.122-34.237-11.98c-7.069-12.732-19.969-20.839-34.509-21.683c-13.818-0.803-24.844-11.829-25.647-25.648
	c-0.845-14.539-8.951-27.439-21.683-34.509c-12.101-6.719-17.253-21.437-11.98-34.235c5.548-13.466,3.842-28.605-4.562-40.499
	c-7.989-11.305-6.243-26.8,4.061-36.043c10.84-9.725,15.871-24.106,13.46-38.469c-2.292-13.65,6.005-26.854,19.299-30.711
	c13.985-4.06,24.758-14.833,28.818-28.818c3.857-13.294,17.059-21.598,30.711-19.299c14.368,2.416,28.744-2.62,38.469-13.46
	c9.244-10.304,24.738-12.05,36.043-4.061c11.893,8.404,27.033,10.109,40.498,4.562c12.799-5.27,27.517-0.123,34.237,11.98
	c7.069,12.732,19.969,20.839,34.509,21.683c13.818,0.803,24.844,11.829,25.647,25.647c0,0.001,0,0.001,0,0.001
	c0.845,14.539,8.951,27.439,21.683,34.509c12.101,6.719,17.253,21.437,11.98,34.235c-5.548,13.466-3.842,28.605,4.562,40.499
	C435.979,268.432,434.233,283.928,423.928,293.171z"/>
<g>
</g>
<g>
</g>
<g>
</g>
<g>
</g>
<g>
</g>
<g>
</g>
<g>
</g>
<g>
</g>
<g>
</g>
<g>
</g>
<g>
</g>
<g>
</g>
<g>
</g>
<g>
</g>
<g>
</g>
</svg>
