<?xml version="1.0" encoding="iso-8859-1"?>
<!-- Generator: Adobe Illustrator 19.0.0, SVG Export Plug-In . SVG Version: 6.00 Build 0)  -->
<svg version="1.1" id="Layer_1" xmlns="http://www.w3.org/2000/svg" xmlns:xlink="http://www.w3.org/1999/xlink" x="0px" y="0px"
	 viewBox="0 0 512.001 512.001" style="enable-background:new 0 0 512.001 512.001;" xml:space="preserve">
<path style="fill:#DFDFE2;" d="M488.409,408.001H23.591c-8.792,0-15.987-7.194-15.987-15.987V119.985
	c0-8.792,7.194-15.987,15.987-15.987h464.819c8.792,0,15.987,7.194,15.987,15.987v272.03
	C504.396,400.808,497.202,408.001,488.409,408.001z"/>
<g>
	<path style="opacity:0.2;fill:#57545C;enable-background:new    ;" d="M488.413,103.999h-60.15v211.879
		c0,8.792-7.194,15.987-15.987,15.987H7.607v60.15c0,8.792,7.193,15.987,15.987,15.987h464.819c8.792,0,15.987-7.194,15.987-15.987
		V119.985C504.399,111.192,497.205,103.999,488.413,103.999z"/>
	<path style="fill:#57545C;" d="M433.652,202.769H239.49c-8.889,0-16.161-7.272-16.161-16.161l0,0
		c0-8.889,7.272-16.161,16.161-16.161h194.162c8.889,0,16.161,7.272,16.161,16.161l0,0
		C449.813,195.497,442.54,202.769,433.652,202.769z"/>
	<path style="fill:#57545C;" d="M433.652,271.781H239.49c-8.889,0-16.161-7.272-16.161-16.161l0,0
		c0-8.889,7.272-16.161,16.161-16.161h194.162c8.889,0,16.161,7.272,16.161,16.161l0,0
		C449.813,264.508,442.54,271.781,433.652,271.781z"/>
	<path style="fill:#57545C;" d="M362.128,339.668H239.49c-8.889,0-16.161-7.272-16.161-16.161l0,0
		c0-8.889,7.272-16.161,16.161-16.161h122.638c8.889,0,16.161,7.272,16.161,16.161l0,0
		C378.289,332.395,371.017,339.668,362.128,339.668z"/>
</g>
<polygon style="fill:#FF3F62;" points="166.415,256.182 166.415,370.447 115.356,353.004 64.298,370.447 64.298,256.182 "/>
<polygon style="fill:#FFA5B5;" points="95.677,256.49 95.677,360.034 115.356,353.311 135.342,360.139 135.342,256.49 "/>
<path style="opacity:0.16;fill:#C70024;enable-background:new    ;" d="M166.415,256.182H64.298v32.071
	c1.439,0.57,2.957,0.991,4.552,1.203c5.682,0.759,10.732,4.005,13.782,8.858l0,0c5.186,8.25,15.708,11.339,24.531,7.202l0,0
	c5.19-2.433,11.194-2.433,16.384,0l0,0c8.823,4.136,19.345,1.046,24.531-7.202l0,0c3.051-4.853,8.101-8.099,13.782-8.858l0,0
	c1.595-0.213,3.115-0.634,4.552-1.203v-32.071H166.415z"/>
<path style="fill:#DDB200;" d="M128.14,138.63L128.14,138.63c4.295,3.797,10.054,5.488,15.72,4.616l0,0
	c9.631-1.482,18.856,4.446,21.508,13.822l0,0c1.56,5.515,5.491,10.052,10.729,12.382l0,0c8.904,3.959,13.459,13.935,10.621,23.256
	l0,0c-1.67,5.484-0.815,11.426,2.332,16.217l0,0c5.349,8.144,3.789,18.999-3.639,25.306l0,0c-4.37,3.711-6.863,9.171-6.806,14.903
	l0,0c0.097,9.744-7.084,18.032-16.743,19.322l0,0c-5.682,0.759-10.732,4.005-13.782,8.858l0,0
	c-5.186,8.25-15.708,11.339-24.531,7.202l0,0c-5.19-2.433-11.193-2.433-16.384,0l0,0c-8.823,4.136-19.344,1.046-24.531-7.202l0,0
	c-3.051-4.853-8.101-8.099-13.782-8.858l0,0c-9.658-1.291-16.839-9.578-16.743-19.322l0,0c0.057-5.732-2.436-11.193-6.806-14.903
	l0,0c-7.428-6.307-8.988-17.162-3.639-25.306l0,0c3.147-4.792,4.002-10.734,2.332-16.217l0,0
	c-2.838-9.321,1.717-19.297,10.621-23.256l0,0c5.238-2.329,9.169-6.866,10.729-12.382l0,0c2.652-9.376,11.877-15.305,21.508-13.822
	l0,0c5.665,0.872,11.425-0.819,15.72-4.616l0,0C109.873,132.177,120.839,132.177,128.14,138.63z"/>
<circle style="fill:#FFE477;" cx="115.357" cy="210.062" r="49.04"/>
<path style="opacity:0.22;fill:#FFFFFF;enable-background:new    ;" d="M179.533,169.451L179.533,169.451
	c-5.238-2.329-9.169-6.866-10.73-12.382c-2.281-8.063-9.425-13.561-17.504-14.005l-97.618,97.618
	c1.237,2.611,1.892,5.494,1.862,8.453c-0.097,9.744,7.084,18.032,16.743,19.322c5.58,0.745,10.546,3.893,13.612,8.603
	l101.358-101.359C185.325,173.055,182.712,170.865,179.533,169.451z"/>
<path d="M488.408,96.395H23.591C10.583,96.395,0,106.978,0,119.985v272.03c0,13.008,10.583,23.591,23.591,23.591h464.819
	c13.008,0,23.592-10.583,23.592-23.591v-272.03C512,106.978,501.417,96.395,488.408,96.395z M496.792,392.015
	c0,4.622-3.76,8.383-8.384,8.383H23.591c-4.622,0-8.383-3.76-8.383-8.383V119.985c0-4.622,3.76-8.383,8.383-8.383h464.819
	c4.623,0,8.384,3.76,8.384,8.383v272.029H496.792z"/>
<path d="M433.652,162.843H239.49c-13.104,0-23.765,10.661-23.765,23.765c0,13.104,10.662,23.765,23.765,23.765h194.162
	c13.104,0,23.765-10.661,23.765-23.765C457.417,173.504,446.755,162.843,433.652,162.843z M433.652,195.165H239.49
	c-4.719,0-8.557-3.838-8.557-8.557s3.838-8.557,8.557-8.557h194.162c4.719,0,8.557,3.838,8.557,8.557
	S438.37,195.165,433.652,195.165z"/>
<path d="M433.652,231.855H239.49c-13.104,0-23.765,10.661-23.765,23.765c0,13.104,10.662,23.765,23.765,23.765h194.162
	c13.104,0,23.765-10.661,23.765-23.765C457.417,242.516,446.755,231.855,433.652,231.855z M433.652,264.177H239.49
	c-4.719,0-8.557-3.838-8.557-8.557c0-4.719,3.838-8.557,8.557-8.557h194.162c4.719,0,8.557,3.838,8.557,8.557
	C442.209,260.338,438.37,264.177,433.652,264.177z"/>
<path d="M362.128,299.742H239.49c-13.104,0-23.765,10.661-23.765,23.765c0,13.104,10.662,23.765,23.765,23.765h122.638
	c13.104,0,23.765-10.661,23.765-23.765C385.893,310.403,375.232,299.742,362.128,299.742z M362.128,332.063H239.49
	c-4.719,0-8.557-3.838-8.557-8.557s3.838-8.557,8.557-8.557h122.638c4.719,0,8.557,3.839,8.557,8.557
	S366.846,332.063,362.128,332.063z"/>
<path d="M193.992,194.922c3.95-12.972-2.415-26.91-14.805-32.419c-3.185-1.415-5.555-4.151-6.502-7.504
	c-3.691-13.047-16.571-21.335-29.981-19.268c-3.446,0.532-6.917-0.489-9.527-2.797l0,0c-10.159-8.982-25.479-8.982-35.639,0
	c-2.611,2.309-6.089,3.326-9.526,2.797c-13.41-2.063-26.291,6.221-29.982,19.269c-0.948,3.352-3.317,6.086-6.502,7.503
	c-12.39,5.51-18.755,19.447-14.805,32.419c1.015,3.334,0.5,6.916-1.413,9.827c-7.445,11.335-5.264,26.5,5.072,35.277
	c2.655,2.256,4.16,5.547,4.123,9.031c-0.093,9.425,4.729,17.89,12.19,22.78v98.608c0,2.41,1.143,4.678,3.08,6.112
	c1.937,1.435,4.439,1.866,6.744,1.162l31.388-9.583c0.019-0.006,0.039-0.011,0.058-0.017l17.393-5.311l48.838,14.911
	c0.729,0.222,1.476,0.332,2.22,0.332c1.61,0,3.199-0.511,4.524-1.492c1.937-1.434,3.08-3.701,3.08-6.112V271.84
	c7.461-4.891,12.284-13.356,12.19-22.781c-0.035-3.484,1.468-6.776,4.123-9.03c10.336-8.777,12.517-23.943,5.072-35.277
	C193.492,201.838,192.977,198.256,193.992,194.922z M71.902,277.337c1.729,0.945,3.216,2.311,4.294,4.024
	c2.94,4.677,7.123,8.164,11.877,10.265v63.611l-16.171,4.938C71.902,360.174,71.902,277.337,71.902,277.337z M113.136,347.585
	l-9.855,3.009v-56.996c2.412-0.389,4.805-1.115,7.111-2.196c3.154-1.479,6.775-1.479,9.929,0c2.405,1.127,4.902,1.86,7.417,2.237
	v57.049l-10.161-3.102C116.13,347.144,114.584,347.144,113.136,347.585z M142.946,355.331v-63.846
	c4.626-2.116,8.694-5.549,11.57-10.123c1.078-1.714,2.566-3.08,4.294-4.025v82.839L142.946,355.331z M180.489,228.435
	c-6.11,5.188-9.569,12.76-9.488,20.775c0.06,5.895-4.303,10.928-10.146,11.709c-7.944,1.06-14.946,5.561-19.214,12.348
	c-3.139,4.991-9.528,6.867-14.865,4.365c-3.629-1.701-7.525-2.552-11.42-2.552c-3.895,0-7.792,0.851-11.42,2.552
	c-5.341,2.504-11.729,0.625-14.865-4.366c-4.267-6.786-11.27-11.286-19.214-12.347c-5.843-0.781-10.205-5.814-10.146-11.709
	c0.08-8.015-3.378-15.587-9.488-20.775c-4.493-3.816-5.441-10.409-2.205-15.337c4.4-6.699,5.584-14.938,3.25-22.606
	c-1.716-5.639,1.049-11.698,6.437-14.093c7.324-3.258,12.776-9.549,14.955-17.26c1.605-5.674,7.216-9.272,13.034-8.378
	c7.927,1.22,15.909-1.126,21.914-6.435c4.415-3.904,11.077-3.904,15.493,0l0,0c6.004,5.308,13.99,7.654,21.915,6.434
	c5.833-0.898,11.428,2.705,13.033,8.377c2.18,7.712,7.631,14.003,14.955,17.261c5.387,2.395,8.153,8.454,6.437,14.094
	c-2.334,7.667-1.15,15.906,3.25,22.605C185.931,218.026,184.982,224.619,180.489,228.435z"/>
<path d="M115.356,153.418c-31.237,0-56.65,25.412-56.65,56.65s25.412,56.65,56.65,56.65s56.649-25.412,56.649-56.65
	S146.593,153.418,115.356,153.418z M115.356,251.509c-22.85,0-41.442-18.59-41.442-41.442s18.591-41.442,41.442-41.442
	s41.442,18.59,41.442,41.442S138.207,251.509,115.356,251.509z"/>
<g>
</g>
<g>
</g>
<g>
</g>
<g>
</g>
<g>
</g>
<g>
</g>
<g>
</g>
<g>
</g>
<g>
</g>
<g>
</g>
<g>
</g>
<g>
</g>
<g>
</g>
<g>
</g>
<g>
</g>
</svg>
