<?xml version="1.0" encoding="iso-8859-1"?>
<!-- Generator: Adobe Illustrator 19.0.0, SVG Export Plug-In . SVG Version: 6.00 Build 0)  -->
<svg version="1.1" id="Capa_1" xmlns="http://www.w3.org/2000/svg" xmlns:xlink="http://www.w3.org/1999/xlink" x="0px" y="0px"
	 viewBox="0 0 512.001 512.001" style="enable-background:new 0 0 512.001 512.001;" xml:space="preserve">
<path style="fill:#E5D8C6;" d="M366.326,256.846l118.891-111.025c16.246-16.246-1.88-60.711-40.485-99.316
	s-73.865-47.526-90.111-31.28l-130.2,148.747c-17.395,19.873-36.095,38.564-55.975,55.951L24.721,345.617
	c-4.725,4.448-5.218,11.787-1.131,16.827l20.67,25.492l-13.28,12.438c-11.602,11.602,1.342,43.358,28.913,70.928
	c27.57,27.57,59.326,40.515,70.929,28.913l117.52-125.474C267.641,354.136,345.692,276.115,366.326,256.846z"/>
<path style="fill:#F3E8D6;" d="M385.375,45.979L274.35,164.87c-19.269,20.634-97.29,98.685-117.896,117.984L30.98,400.375
	c-11.602,11.602,1.342,43.358,28.913,70.928c27.57,27.57,59.326,40.515,70.929,28.913l117.52-125.474
	c19.3-20.606,97.35-98.627,117.984-117.896l118.891-111.025L385.375,45.979z"/>
<path style="fill:#E5D8C6;" d="M366.326,256.846l118.891-111.025l-32.182-32.182L334.144,224.664
	c-20.634,19.269-98.685,97.29-117.984,117.896L98.639,468.034c-9.232,9.232-31.225,2.91-53.716-13.944
	c4.327,5.774,9.337,11.581,14.969,17.213c27.57,27.57,59.326,40.515,70.928,28.913l117.52-125.474
	C267.641,354.136,345.692,276.115,366.326,256.846z"/>
<ellipse transform="matrix(0.7071 -0.7071 0.7071 0.7071 59.6837 335.8929)" style="fill:#CCBAA3;" cx="435.3" cy="95.902" rx="29.71" ry="70.599"/>
<path style="fill:#BFA68C;" d="M456.304,74.892c-5.596-5.596-11.363-10.576-17.1-14.884c16.917,22.53,23.276,44.581,14.029,53.829
	s-31.299,2.889-53.829-14.029c4.308,5.737,9.289,11.504,14.884,17.1c27.57,27.57,59.326,40.515,70.928,28.913
	S483.874,102.463,456.304,74.892z"/>
<path style="fill:#FF4C4C;" d="M157.388,229.594c0,0,9.497,19.647,51.655,61.805c37.152,37.152,66.009,55.859,66.009,55.859
	c16.342-7.616,40.773-32.046,49.512-49.626c0,0-36.59-26.912-65.716-56.038c-31.301-31.301-50.421-60.099-50.421-60.099
	C201.503,185.259,183.939,195.364,157.388,229.594z"/>
<path style="fill:#EA2828;" d="M324.564,297.632c0,0-15.97-11.747-35.207-28.116c-9.794,17.87-32.915,41.091-49.811,50.21
	c21.298,18.316,35.505,27.533,35.505,27.533C291.395,339.642,315.825,315.212,324.564,297.632z"/>
<path style="fill:#FF4C4C;" d="M139.66,325.414l10.275-24.986c0.294-0.715,0.113-1.537-0.454-2.062l-19.824-18.354
	c-1.097-1.015-0.6-2.845,0.859-3.166l99.886-22.008l11.254,51.08l-99.886,22.008C140.311,328.247,139.092,326.796,139.66,325.414z"
	/>
<path style="fill:#EA2828;" d="M179.721,365.475l24.986-10.275c0.715-0.294,1.537-0.113,2.062,0.454l18.354,19.824
	c1.015,1.097,2.845,0.6,3.166-0.859l22.008-99.886l-51.08-11.254l-22.008,99.886C176.888,364.824,178.339,366.043,179.721,365.475z"
	/>
<circle style="fill:#FFB125;" cx="236.581" cy="268.55" r="52.33"/>
<path style="fill:#FF901D;" d="M273.587,231.548c-5.636-5.636-12.24-9.709-19.275-12.236c6.637,18.473,2.564,39.931-12.236,54.731
	c-14.8,14.8-36.257,18.873-54.731,12.237c2.527,7.035,6.6,13.639,12.236,19.275c20.436,20.436,53.57,20.436,74.006,0
	C294.023,285.118,294.023,251.984,273.587,231.548z"/>
<circle style="fill:#FED130;" cx="236.581" cy="268.55" r="27.08"/>
<path d="M492.499,101.712c-8.016-19.664-23.094-41.157-42.456-60.519c-19.208-19.208-38.732-32.366-56.457-38.05
	c-18.314-5.87-34.037-3.466-44.275,6.771c-0.118,0.117-0.232,0.239-0.341,0.364l-59.072,67.487
	c-2.732,3.122-2.417,7.867,0.705,10.599c3.121,2.732,7.866,2.417,10.598-0.705l58.893-67.282c8.19-7.977,21.607-5.269,28.905-2.929
	c14.56,4.668,30.871,15.484,47.359,31.365c-6.311-4.153-12.608-7.551-18.671-10.022c-16.059-6.546-29.202-6.013-37.142,1.444
	c-0.101,0.085-0.199,0.177-0.297,0.268c-0.059,0.058-0.124,0.107-0.183,0.165c-0.03,0.03-0.055,0.063-0.084,0.093
	c-0.031,0.032-0.065,0.059-0.095,0.092L268.861,159.744c-6.421,6.876-20.159,20.952-38.146,39.095
	c-5.637-7.056-9.926-12.856-12.64-16.643c4.191-4.502,8.212-8.951,11.997-13.276l47.829-54.642
	c2.732-3.122,2.417-7.866-0.705-10.599c-3.121-2.732-7.866-2.417-10.598,0.705l-47.829,54.642
	c-4.667,5.331-9.713,10.864-14.996,16.455c-7.083,3.903-25.301,14.829-51.858,48.922L19.777,339.964
	c-0.069,0.06-0.137,0.122-0.204,0.185c-7.547,7.105-8.345,18.976-1.817,27.026l16.266,20.061l-8.176,7.658
	c-0.06,0.056-0.119,0.113-0.177,0.171c-7.886,7.886-8.553,21.247-1.878,37.622c5.83,14.302,16.765,29.903,30.791,43.928
	c19.744,19.745,45.416,35.388,64.394,35.386c6.757,0,12.668-1.984,17.157-6.473c0.058-0.058,0.115-0.117,0.171-0.177l46.321-49.456
	c2.836-3.027,2.68-7.781-0.348-10.616c-3.027-2.836-7.78-2.68-10.616,0.348l-46.218,49.346c-6.517,6.278-33.102-1.842-60.239-28.979
	c-12.643-12.643-22.41-26.485-27.502-38.976c-4.033-9.895-4.595-18.024-1.477-21.262l101.289-94.868l-4.799,11.67
	c-1.331,3.234-0.759,6.906,1.49,9.584c1.804,2.148,4.426,3.342,7.154,3.342c0.673,0,1.353-0.072,2.028-0.221l33.972-7.485
	l-7.485,33.974c-0.752,3.415,0.445,6.933,3.122,9.182c2.679,2.249,6.351,2.819,9.582,1.489l21.35-8.78l15.684,16.939
	c1.801,1.945,4.288,3.004,6.857,3.004c0.82,0,1.648-0.108,2.464-0.33c0.645-0.175,1.249-0.433,1.827-0.731l-35.204,37.586
	c-2.836,3.027-2.68,7.781,0.348,10.616c1.449,1.357,3.293,2.029,5.133,2.029c2.005,0,4.005-0.798,5.484-2.376l47.302-50.504
	c4.821-5.147,13.695-14.282,25.682-26.437c17.408-8.727,41.541-32.904,51.182-51.303c18.903-18.754,33.737-33.239,40.764-39.802
	L490.343,151.31c0.03-0.028,0.055-0.059,0.085-0.088c0.033-0.031,0.068-0.058,0.1-0.09c0.06-0.06,0.11-0.127,0.169-0.187
	c0.092-0.099,0.184-0.198,0.27-0.3C500.658,140.445,501.223,123.116,492.499,101.712z M236.584,223.753
	c11.478,0,22.955,4.369,31.692,13.106c17.475,17.475,17.475,45.909,0,63.384c-17.474,17.475-45.909,17.475-63.384,0
	s-17.475-45.909,0-63.384C213.629,228.122,225.106,223.753,236.584,223.753z M206.245,191.487
	c3.19,4.438,8.198,11.161,14.804,19.304c-9.816,2.622-19.094,7.759-26.78,15.446c-6.555,6.555-11.268,14.266-14.14,22.482
	c-7.12-8.735-11.372-14.891-13.672-18.504C184.968,207.058,198.458,196.509,206.245,191.487z M128.902,269.51
	c-3.415,0.752-6.105,3.314-7.022,6.688c-0.916,3.374,0.108,6.947,2.674,9.324l9.084,8.411L45.013,376.94l-15.59-19.227
	c-1.578-1.947-1.41-4.804,0.37-6.554l125.845-110.057c3.045,4.527,7.722,10.942,14.641,19.291L128.902,269.51z M180.921,311.609
	l-30.199,6.653l6.159-14.979c1.479-3.596,0.555-7.788-2.298-10.429L142.7,281.852l34.344-7.567
	c0.759,7.953,3.116,15.777,7.041,22.965L180.921,311.609z M223.283,362.434l-11.002-11.883c-2.642-2.854-6.834-3.777-10.431-2.298
	l-14.978,6.159l9.214-41.821c9.915,9.126,22.18,14.299,34.763,15.499L223.283,362.434z M242.86,369.607l-7.811,8.34
	c0.238-0.548,0.443-1.114,0.575-1.712l9.299-42.205c7.721,6.295,14.044,11.055,18.531,14.303
	C254.069,357.885,247.011,365.175,242.86,369.607z M275.558,338.507c-3.685-2.586-10.05-7.215-18.294-13.822
	c7.897-2.896,15.307-7.493,21.634-13.82c7.818-7.819,13.003-17.283,15.581-27.286c8.501,6.977,15.71,12.585,20.297,16.086
	C305.881,313.697,288.577,330.894,275.558,338.507z M361.199,251.356c-6.757,6.31-19.912,19.136-37.306,36.365
	c-5.82-4.446-16.024-12.406-27.573-22.153c-0.708-14.315-6.514-28.422-17.422-39.331c-10.336-10.336-23.545-16.084-37.081-17.262
	c17.879-18.038,31.559-32.058,38.021-38.979l95.08-101.815c0.758,3.218,1.832,6.589,3.267,10.11
	c5.83,14.302,16.765,29.903,30.791,43.928c14.026,14.026,29.627,24.961,43.929,30.791c3.517,1.434,6.889,2.516,10.103,3.273
	L361.199,251.356z M479.929,140.482l-0.09,0.084c-3.234,3.124-11.361,2.57-21.263-1.467c-12.492-5.092-26.334-14.859-38.977-27.502
	c-12.642-12.643-22.41-26.485-27.502-38.976c-4.039-9.907-4.592-18.038-1.462-21.269l0.079-0.085c1.385-1.365,3.686-2.04,6.659-2.04
	c3.916,0,8.991,1.171,14.643,3.475c12.491,5.092,26.333,14.859,38.976,27.502C478.188,107.398,486.282,134.036,479.929,140.482z"/>
<path d="M212.122,293.013c6.534,6.534,15.221,10.133,24.462,10.133s17.928-3.598,24.463-10.133
	c13.488-13.489,13.488-35.436,0-48.925c-6.535-6.534-15.222-10.133-24.463-10.133s-17.928,3.598-24.462,10.133
	c-6.534,6.534-10.133,15.221-10.133,24.462S205.587,286.479,212.122,293.013z M222.743,254.711c3.697-3.697,8.612-5.733,13.84-5.733
	s10.144,2.036,13.841,5.733c7.632,7.632,7.632,20.049,0,27.681c-3.697,3.697-8.613,5.733-13.841,5.733s-10.143-2.036-13.84-5.733
	c-3.697-3.697-5.733-8.613-5.733-13.841S219.046,258.408,222.743,254.711z"/>
<g>
</g>
<g>
</g>
<g>
</g>
<g>
</g>
<g>
</g>
<g>
</g>
<g>
</g>
<g>
</g>
<g>
</g>
<g>
</g>
<g>
</g>
<g>
</g>
<g>
</g>
<g>
</g>
<g>
</g>
</svg>
