<?xml version="1.0" encoding="iso-8859-1"?>
<!-- Generator: Adobe Illustrator 19.0.0, SVG Export Plug-In . SVG Version: 6.00 Build 0)  -->
<svg version="1.1" id="Capa_1" xmlns="http://www.w3.org/2000/svg" xmlns:xlink="http://www.w3.org/1999/xlink" x="0px" y="0px"
	 viewBox="0 0 512.001 512.001" style="enable-background:new 0 0 512.001 512.001;" xml:space="preserve">
<path style="fill:#FF4C4C;" d="M437.454,176.969L259.773,262c-2.385,1.141-5.159,1.141-7.544,0l-177.68-85.031
	c-3.035-1.452-4.966-4.518-4.966-7.882V16.241c0-4.826,3.912-8.738,8.738-8.738h355.361c4.826,0,8.738,3.912,8.738,8.738v152.846
	C442.42,172.451,440.488,175.517,437.454,176.969z"/>
<path style="fill:#EA2828;" d="M433.682,7.502h-36.45v167.09l-163.825,78.4L252.229,262c2.385,1.141,5.159,1.141,7.544,0
	l177.68-85.031c3.035-1.452,4.966-4.518,4.966-7.882V16.241C442.42,11.415,438.508,7.502,433.682,7.502z"/>
<polygon style="fill:#E1EFFB;" points="189.946,232.194 256.001,263.805 322.056,232.194 322.056,7.502 189.946,7.502 "/>
<polygon style="fill:#C3D8E5;" points="322.056,210.569 233.407,252.992 256.001,263.805 322.056,232.194 "/>
<path style="fill:#FFB125;" d="M258.908,263.855l36.824,74.615c0.472,0.957,1.385,1.62,2.441,1.774l82.342,11.965
	c2.659,0.386,3.721,3.654,1.797,5.53l-59.583,58.079c-0.764,0.745-1.113,1.818-0.932,2.87l14.066,82.009
	c0.454,2.648-2.326,4.668-4.704,3.418l-73.649-38.72c-0.944-0.497-2.073-0.497-3.017,0l-73.649,38.72
	c-2.378,1.25-5.158-0.769-4.704-3.418l14.066-82.009c0.18-1.052-0.168-2.125-0.932-2.87l-59.583-58.079
	c-1.924-1.876-0.862-5.143,1.797-5.53l82.342-11.965c1.056-0.153,1.969-0.817,2.441-1.774l36.824-74.615
	C254.283,261.445,257.719,261.445,258.908,263.855z"/>
<g>
	<path style="fill:#FF901D;" d="M249.289,336.318l47.049,2.972c-0.237-0.242-0.451-0.508-0.605-0.82l-36.825-74.615
		c-1.189-2.41-4.625-2.41-5.814,0l-19.784,40.086L249.289,336.318z"/>
	<path style="fill:#FF901D;" d="M382.313,357.738c1.924-1.876,0.862-5.143-1.797-5.53l-32.994-4.794l-71.395,69.593l10.967,63.941
		l44.065,23.166c2.378,1.25,5.158-0.769,4.704-3.418l-14.066-82.009c-0.18-1.052,0.168-2.125,0.932-2.87L382.313,357.738z"/>
</g>
<path d="M433.682,0H78.321C69.366,0,62.08,7.286,62.08,16.241v152.846c0,6.217,3.624,11.967,9.23,14.649l172.271,82.442
	l-33.048,66.963l-80.126,11.643c-4.077,0.592-7.4,3.393-8.673,7.312c-1.273,3.918-0.232,8.138,2.719,11.014l57.979,56.516
	l-2.942,17.15c-0.7,4.084,2.042,7.962,6.126,8.663c4.088,0.703,7.962-2.042,8.663-6.126l3.32-19.359
	c0.597-3.485-0.558-7.04-3.09-9.509l-53.402-52.054l73.8-10.724c3.5-0.508,6.524-2.705,8.09-5.878l33.004-66.873l33.005,66.874
	c1.565,3.172,4.59,5.369,8.089,5.877l73.8,10.724l-53.403,52.055c-2.531,2.468-3.687,6.023-3.089,9.509l12.607,73.501
	l-66.008-34.702c-3.132-1.647-6.87-1.646-10,0l-66.009,34.703l3.231-18.835c0.7-4.084-2.042-7.962-6.126-8.663
	c-4.085-0.7-7.962,2.043-8.663,6.126l-4.69,27.344c-0.696,4.06,0.942,8.087,4.275,10.509c1.883,1.368,4.087,2.063,6.305,2.063
	c1.708,0,3.424-0.412,5.01-1.245l71.666-37.679l71.667,37.678c3.646,1.917,7.981,1.603,11.315-0.818
	c3.332-2.422,4.971-6.448,4.274-10.509l-13.687-79.802l57.979-56.515c2.95-2.875,3.992-7.096,2.719-11.014
	c-1.273-3.919-4.596-6.721-8.673-7.313l-80.126-11.643l-33.048-66.963l172.271-82.442c5.607-2.683,9.23-8.433,9.23-14.649V16.241
	C449.922,7.286,442.637,0,433.682,0z M182.444,220.287L77.786,170.201c-0.427-0.204-0.702-0.642-0.702-1.115V16.241
	c0-0.682,0.555-1.237,1.237-1.237h104.124v205.283H182.444z M434.918,169.087c0,0.473-0.275,0.911-0.702,1.115l-104.658,50.085
	V84.33c0-4.143-3.359-7.502-7.502-7.502s-7.502,3.359-7.502,7.502v143.137l-56.873,27.217c-0.55-0.086-1.109-0.139-1.68-0.139
	c-0.57,0-1.129,0.053-1.679,0.139l-56.874-27.218V15.004h117.105v34.28c0,4.143,3.359,7.502,7.502,7.502s7.502-3.359,7.502-7.502
	v-34.28h104.124c0.682,0,1.236,0.555,1.236,1.237L434.918,169.087L434.918,169.087z"/>
<g>
</g>
<g>
</g>
<g>
</g>
<g>
</g>
<g>
</g>
<g>
</g>
<g>
</g>
<g>
</g>
<g>
</g>
<g>
</g>
<g>
</g>
<g>
</g>
<g>
</g>
<g>
</g>
<g>
</g>
</svg>
