<?xml version="1.0" encoding="iso-8859-1"?>
<!-- Generator: Adobe Illustrator 19.0.0, SVG Export Plug-In . SVG Version: 6.00 Build 0)  -->
<svg version="1.1" id="Capa_1" xmlns="http://www.w3.org/2000/svg" xmlns:xlink="http://www.w3.org/1999/xlink" x="0px" y="0px"
	 viewBox="0 0 512 512" style="enable-background:new 0 0 512 512;" xml:space="preserve">
<path style="fill:#77D057;" d="M358.76,185.799l21.332-21.332l-32.568-32.568l-21.332,21.332
	c-36.104,36.104-79.542,64.033-127.374,81.896l0,0c-22.667,8.465-43.25,21.699-60.359,38.808L18.371,394.021
	c-14.509,14.509-14.509,38.033,0,52.542l47.056,47.056c14.509,14.509,38.033,14.509,52.542,0l120.087-120.087
	c17.109-17.109,30.343-37.693,38.808-60.359l0,0C294.727,265.34,322.655,221.902,358.76,185.799z"/>
<path style="fill:#62B240;" d="M276.864,313.172L276.864,313.172c17.863-47.832,45.792-91.27,81.896-127.374l21.333-21.333
	l-32.552-32.552l-21.333,21.333c-36.104,36.104-64.033,79.542-81.896,127.374l0,0c-8.465,22.667-21.699,43.25-38.808,60.359
	L85.417,461.066c-14.509,14.509-38.033,14.509-52.542,0l32.552,32.552c14.509,14.509,38.033,14.509,52.542,0l120.087-120.087
	C255.164,356.423,268.399,335.839,276.864,313.172z"/>
<path style="fill:#FFB125;" d="M347.524,131.898l-21.332,21.332c-26.755,26.755-57.539,49.016-91.154,66.021
	c-16.011,8.1-19.551,29.389-6.863,42.077l22.487,22.487c12.688,12.688,33.978,9.148,42.077-6.863
	c17.005-33.615,39.266-64.399,66.021-91.154l21.332-21.332L347.524,131.898z"/>
<path style="fill:#D9DDE2;" d="M438.629,64.132l9.229,9.229c5.66,5.66,14.837,5.66,20.497,0l16.587-16.587l-29.726-29.726
	l-16.587,16.587C432.969,49.295,432.969,58.472,438.629,64.132z"/>
<path style="fill:#FF901D;" d="M480.878,64.326l-33.214-33.214c-1.809-1.809-1.809-4.741,0-6.549l15.712-15.712
	c1.809-1.809,4.741-1.809,6.549,0l33.214,33.214c1.809,1.809,1.809,4.741,0,6.549l-15.712,15.712
	C485.619,66.135,482.686,66.135,480.878,64.326z"/>
<ellipse transform="matrix(0.7071 -0.7071 0.7071 0.7071 -223.51 207.3404)" style="fill:#F2F2F2;" cx="138.527" cy="373.471" rx="60.649" ry="46.03"/>
<path style="fill:#D9DDE2;" d="M181.401,330.589c-5.652-5.652-12.867-9.066-20.837-10.36c2.821,17.381-4.455,38.361-20.693,54.6
	c-16.238,16.238-37.218,23.515-54.6,20.693c1.294,7.97,4.708,15.185,10.36,20.837c17.978,17.978,51.752,13.352,75.437-10.333
	S199.379,348.566,181.401,330.589z"/>
<g>
	<path style="fill:#FF901D;" d="M245.183,278.336l5.479,5.479c12.685,12.685,33.969,9.149,42.072-6.854
		c2.125-4.201,4.332-8.358,6.62-12.468c0.006-0.012,0.013-0.023,0.02-0.035c1.118-2.007,2.255-4.003,3.411-5.987
		c0.036-0.061,0.071-0.123,0.107-0.184c1.165-1.998,2.349-3.985,3.553-5.96c0.024-0.04,0.049-0.08,0.073-0.12
		c1.149-1.882,2.316-3.753,3.499-5.614c0.097-0.153,0.194-0.306,0.291-0.459c1.216-1.906,2.448-3.801,3.7-5.683
		c0.046-0.07,0.094-0.139,0.14-0.209c1.175-1.764,2.368-3.516,3.574-5.259c0.161-0.233,0.322-0.467,0.484-0.7
		c1.262-1.814,2.539-3.618,3.835-5.408c0.069-0.095,0.138-0.189,0.207-0.283c1.201-1.657,2.42-3.302,3.65-4.938
		c0.226-0.301,0.452-0.602,0.679-0.903c1.305-1.724,2.623-3.44,3.96-5.141c0.087-0.111,0.176-0.22,0.263-0.33
		c1.234-1.567,2.485-3.122,3.746-4.669c0.284-0.349,0.568-0.698,0.854-1.046c1.351-1.644,2.712-3.279,4.093-4.899
		c0.089-0.105,0.181-0.208,0.27-0.313c1.286-1.506,2.588-2.999,3.9-4.484c0.331-0.375,0.663-0.75,0.995-1.124
		c1.402-1.574,2.814-3.14,4.245-4.69c0.065-0.07,0.131-0.139,0.196-0.209c1.366-1.477,2.748-2.939,4.139-4.394
		c0.367-0.383,0.734-0.766,1.102-1.147c1.461-1.514,2.931-3.02,4.419-4.508l21.333-21.333l-32.552-32.552l-21.333,21.333
		C290.68,188.775,263.076,231.407,245.183,278.336z"/>
	<path style="fill:#FF901D;" d="M367.617,177.587l-33.214-33.214c-1.809-1.809-1.809-4.741,0-6.549l15.712-15.712
		c1.809-1.809,4.741-1.809,6.549,0l33.214,33.214c1.809,1.809,1.809,4.741,0,6.549l-15.712,15.712
		C372.358,179.396,369.426,179.396,367.617,177.587z"/>
</g>
<path d="M429.022,82.969c-2.93-2.928-7.678-2.928-10.608,0l-26.507,26.507c-2.929,2.93-2.929,7.678,0,10.608
	c1.465,1.464,3.385,2.196,5.304,2.196c1.919,0,3.839-0.732,5.304-2.196l26.507-26.507C431.95,90.647,431.95,85.899,429.022,82.969z"
	/>
<path d="M455.042,137.803l-34.692,2.851c-4.128,0.339-7.2,3.961-6.86,8.089c0.322,3.919,3.603,6.886,7.466,6.886
	c0.206,0,0.414-0.008,0.623-0.025l34.692-2.851c4.128-0.339,7.2-3.961,6.86-8.089C462.791,140.535,459.166,137.451,455.042,137.803z
	"/>
<path d="M363.248,98.5c0.209,0.018,0.416,0.025,0.623,0.025c3.863,0,7.144-2.967,7.466-6.886l2.851-34.692
	c0.34-4.128-2.732-7.75-6.86-8.089c-4.11-0.34-7.749,2.731-8.089,6.86l-2.851,34.692C356.048,94.539,359.12,98.161,363.248,98.5z"/>
<path d="M361.966,116.807c-4.729-4.727-12.425-4.727-17.155,0.002L329.1,132.52c-2.872,2.873-3.989,6.837-3.373,10.569l-4.839,4.839
	c-5.273,5.274-10.793,10.449-16.407,15.383c-3.111,2.734-3.417,7.474-0.683,10.585c1.482,1.687,3.555,2.549,5.637,2.549
	c1.758,0,3.523-0.614,4.948-1.866c5.855-5.146,11.612-10.544,17.112-16.044l3.232-3.231l21.961,21.961l-3.231,3.231
	c-27.815,27.816-50.585,59.359-67.981,94.118c-2.878,4.931-7.681,8.239-13.349,9.145c-5.969,0.959-11.87-0.954-16.161-5.246
	l-22.487-22.486c-4.29-4.291-6.202-10.182-5.246-16.163c0.969-6.06,4.683-11.133,10.191-13.919c0.021-0.01,0.039-0.023,0.059-0.034
	c16.542-8.374,32.444-18,47.544-28.813c3.368-2.411,4.144-7.097,1.731-10.464c-2.411-3.367-7.097-4.143-10.464-1.731
	c-25.006,17.906-52.292,32.441-81.101,43.199c-23.837,8.902-45.046,22.538-63.039,40.531L13.068,388.717
	c-17.41,17.41-17.41,45.739,0,63.149l47.056,47.055C68.558,507.355,79.771,512,91.698,512s23.14-4.645,31.574-13.078l19.447-19.447
	c2.929-2.93,2.929-7.678,0-10.608c-2.928-2.928-7.677-2.928-10.607,0l-19.447,19.447c-5.6,5.601-13.046,8.686-20.967,8.686
	s-15.367-3.085-20.968-8.686l-47.056-47.055c-5.601-5.601-8.685-13.047-8.685-20.967c0-7.921,3.084-15.367,8.685-20.967
	l120.087-120.087c16.464-16.463,35.87-28.941,57.68-37.085c4.027-1.504,8.024-3.084,11.992-4.729
	c-0.004,0.024-0.01,0.047-0.013,0.071c-1.725,10.786,1.72,21.406,9.451,29.138l22.487,22.486c6.422,6.424,14.838,9.888,23.688,9.888
	c1.802,0,3.624-0.144,5.448-0.436c0.023-0.004,0.044-0.009,0.067-0.013c-1.638,3.961-3.217,7.956-4.724,11.991
	c-8.146,21.811-20.622,41.217-37.085,57.679l-75.641,75.641c-2.929,2.93-2.929,7.678,0,10.608c1.464,1.464,3.384,2.196,5.303,2.196
	c1.919,0,3.839-0.732,5.303-2.196l75.641-75.64c17.992-17.992,31.629-39.202,40.531-63.039c4.405-11.796,9.397-23.266,14.962-34.393
	c0.195-0.354,0.395-0.704,0.579-1.067c0.063-0.124,0.112-0.251,0.167-0.377c16.588-32.778,38.166-62.561,64.465-88.859l4.838-4.839
	c0.659,0.109,1.324,0.174,1.99,0.174c3.106,0,6.213-1.183,8.577-3.547l15.714-15.713c4.727-4.73,4.727-12.424-0.001-17.155
	L361.966,116.807z M370.892,170.255l-29.157-29.157l11.654-11.654l29.157,29.157L370.892,170.255z"/>
<path d="M186.705,325.284c-20.874-20.873-59.472-16.237-86.043,10.333c-26.571,26.572-31.206,65.171-10.333,86.043
	c8.62,8.621,20.327,13.166,33.558,13.166c2.72,0,5.506-0.192,8.341-0.581c15.861-2.172,31.538-10.311,44.144-22.916
	C202.943,384.757,207.578,346.158,186.705,325.284z M130.192,419.384c-11.871,1.629-22.26-1.332-29.257-8.33
	c-15.025-15.025-10.389-44.107,10.333-64.829c12.509-12.509,28.062-19.155,41.733-19.155c8.976,0,17.142,2.867,23.097,8.822
	c15.025,15.025,10.389,44.107-10.333,64.83C155.461,411.025,142.828,417.654,130.192,419.384z"/>
<path d="M508.442,36.762L475.228,3.548c-4.731-4.731-12.427-4.729-17.155,0L442.359,19.26c-3.457,3.459-4.374,8.5-2.774,12.811
	l-6.259,6.259c-4.153,4.154-6.441,9.678-6.441,15.553c0,5.874,2.288,11.398,6.441,15.552l9.229,9.229
	c4.154,4.153,9.678,6.441,15.552,6.441c5.875,0,11.399-2.288,15.553-6.441l6.259-6.259c1.363,0.506,2.797,0.77,4.235,0.77
	c3.106,0,6.214-1.183,8.579-3.547l15.711-15.711C513.172,49.188,513.172,41.493,508.442,36.762z M463.051,68.058
	c-2.729,2.729-7.165,2.728-9.89,0l-9.229-9.229c-2.728-2.727-2.728-7.163,0-9.89l5.474-5.475l19.119,19.119L463.051,68.058z
	 M484.153,56.994l-29.157-29.157l11.654-11.654l29.157,29.157L484.153,56.994z"/>
<g>
</g>
<g>
</g>
<g>
</g>
<g>
</g>
<g>
</g>
<g>
</g>
<g>
</g>
<g>
</g>
<g>
</g>
<g>
</g>
<g>
</g>
<g>
</g>
<g>
</g>
<g>
</g>
<g>
</g>
</svg>
