<svg height="512pt" viewBox="0 -35 512 512" width="512pt" xmlns="http://www.w3.org/2000/svg"><path d="m490.703125 383.839844h-469.40625c-7.621094 0-13.796875-6.175782-13.796875-13.796875v-348.746094c0-7.621094 6.175781-13.796875 13.796875-13.796875h469.40625c7.621094 0 13.796875 6.175781 13.796875 13.796875v348.746094c0 7.621093-6.175781 13.796875-13.796875 13.796875zm0 0" fill="#99e2ff"/><path d="m490.703125 7.5h-38.605469v376.339844h38.605469c7.621094 0 13.796875-6.175782 13.796875-13.796875v-348.746094c0-7.621094-6.175781-13.796875-13.796875-13.796875zm0 0" fill="#6bd"/><path d="m472.476562 296.21875v-201.101562c0-6.296876-4.394531-11.632813-10.507812-13.140626-15.707031-3.875-28.070312-16.238281-31.945312-31.945312-1.507813-6.113281-6.84375-10.507812-13.140626-10.507812h-321.765624c-6.296876 0-11.632813 4.394531-13.140626 10.507812-3.875 15.707031-16.238281 28.070312-31.945312 31.945312-6.113281 1.507813-10.507812 6.84375-10.507812 13.140626v201.101562c0 6.300781 4.394531 11.632812 10.507812 13.140625 15.707031 3.875 28.070312 16.242187 31.945312 31.949219 1.507813 6.113281 6.84375 10.503906 13.140626 10.503906h321.765624c6.296876 0 11.632813-4.390625 13.140626-10.503906 3.875-15.707032 16.238281-28.074219 31.945312-31.949219 6.113281-1.507813 10.507812-6.839844 10.507812-13.140625zm0 0" fill="#f8fbff"/><path d="m422.011719 433.375-24.8125-13.160156c-1.695313-.902344-3.726563-.902344-5.421875 0l-24.8125 13.160156c-3.851563 2.046875-8.492188-.746094-8.492188-5.109375v-102.605469h72.035156v102.605469c0 4.363281-4.644531 7.15625-8.496093 5.109375zm0 0" fill="#fcdf6c"/><path d="m405.199219 235.261719c3.640625 5.183593 10.476562 7.015625 16.222656 4.347656 8.226563-3.824219 17.75 1.675781 18.550781 10.707031.558594 6.316406 5.5625 11.320313 11.878906 11.878906 9.03125.800782 14.53125 10.328126 10.710938 18.550782-2.671875 5.746094-.839844 12.582031 4.347656 16.226562 7.421875 5.210938 7.421875 16.207032 0 21.417969-5.1875 3.640625-7.019531 10.476563-4.347656 16.226563 3.820312 8.222656-1.679688 17.746093-10.710938 18.546874-6.3125.5625-11.316406 5.566407-11.878906 11.878907-.800781 9.035156-10.324218 14.53125-18.550781 10.710937-5.746094-2.671875-12.582031-.839844-16.222656 4.347656-5.210938 7.421876-16.210938 7.421876-21.421875 0-3.640625-5.1875-10.476563-7.019531-16.222656-4.347656-8.226563 3.820313-17.75-1.675781-18.550782-10.710937-.5625-6.3125-5.566406-11.316407-11.878906-11.878907-9.03125-.800781-14.53125-10.324218-10.710938-18.546874 2.671876-5.75.839844-12.585938-4.347656-16.226563-7.421875-5.210937-7.421875-16.207031 0-21.417969 5.1875-3.644531 7.019532-10.480468 4.347656-16.226562-3.820312-8.222656 1.679688-17.75 10.710938-18.550782 6.3125-.558593 11.316406-5.5625 11.878906-11.878906.800782-9.03125 10.324219-14.53125 18.550782-10.707031 5.746093 2.667969 12.582031.839844 16.222656-4.347656 5.210937-7.421875 16.210937-7.421875 21.421875 0zm0 0" fill="#ff8533"/><path d="m439.414062 307.679688c0 24.8125-20.113281 44.925781-44.925781 44.925781s-44.925781-20.113281-44.925781-44.925781 20.113281-44.925782 44.925781-44.925782 44.925781 20.113282 44.925781 44.925782zm0 0" fill="#fcdf6c"/><path d="m394.488281 262.753906c-9.785156 0-18.832031 3.140625-26.210937 8.453125 11.328125 8.15625 18.710937 21.449219 18.710937 36.472657 0 15.027343-7.382812 28.320312-18.710937 36.476562 7.378906 5.3125 16.425781 8.449219 26.210937 8.449219 24.8125 0 44.925781-20.113281 44.925781-44.921875 0-24.816406-20.113281-44.929688-44.925781-44.929688zm0 0" fill="#f4b425"/><path d="m196.726562 97.84375h118.546876c4.144531 0 7.5-3.359375 7.5-7.5s-3.355469-7.5-7.5-7.5h-118.546876c-4.140624 0-7.5 3.359375-7.5 7.5s3.359376 7.5 7.5 7.5zm0 0"/><path d="m100.378906 159.226562h311.242188c4.144531 0 7.5-3.359374 7.5-7.5 0-4.144531-3.355469-7.5-7.5-7.5h-311.242188c-4.144531 0-7.5 3.355469-7.5 7.5 0 4.140626 3.355469 7.5 7.5 7.5zm0 0"/><path d="m100.378906 211.738281h311.242188c4.144531 0 7.5-3.359375 7.5-7.5s-3.355469-7.5-7.5-7.5h-311.242188c-4.144531 0-7.5 3.359375-7.5 7.5s3.355469 7.5 7.5 7.5zm0 0"/><path d="m289.023438 249.25h-188.644532c-4.144531 0-7.5 3.359375-7.5 7.5s3.355469 7.5 7.5 7.5h188.644532c4.144531 0 7.5-3.359375 7.5-7.5s-3.355469-7.5-7.5-7.5zm0 0"/><path d="m490.703125 0h-469.40625c-11.742187 0-21.296875 9.554688-21.296875 21.296875v348.746094c0 11.742187 9.554688 21.296875 21.296875 21.296875h307.152344c4.144531 0 7.5-3.359375 7.5-7.5 0-4.144532-3.355469-7.5-7.5-7.5h-307.152344c-3.472656 0-6.296875-2.824219-6.296875-6.296875v-348.746094c0-3.472656 2.824219-6.296875 6.296875-6.296875h469.40625c3.472656 0 6.296875 2.824219 6.296875 6.296875v348.746094c0 3.472656-2.824219 6.296875-6.296875 6.296875h-30.042969c-4.144531 0-7.5 3.355468-7.5 7.5 0 4.140625 3.355469 7.5 7.5 7.5h30.042969c11.742187 0 21.296875-9.554688 21.296875-21.296875v-348.746094c0-11.742187-9.554688-21.296875-21.296875-21.296875zm0 0"/><path d="m468.519531 350.425781c3.351563-5.804687 3.664063-12.894531.84375-18.972656-1.144531-2.457031-.363281-5.367187 1.855469-6.925781 5.480469-3.847656 8.757812-10.144532 8.757812-16.847656 0-1.953126-.28125-3.875-.8125-5.710938.539063-1.863281.808594-3.785156.808594-5.75v-201.101562c0-9.667969-6.664062-18.066407-16.210937-20.421876-13.089844-3.226562-23.230469-13.367187-26.457031-26.460937-2.355469-9.542969-10.753907-16.207031-20.425782-16.207031h-321.761718c-9.667969 0-18.066407 6.664062-20.421876 16.210937-3.230468 13.089844-13.367187 23.230469-26.460937 26.457031-9.542969 2.355469-16.210937 10.753907-16.210937 20.421876v201.101562c0 9.671875 6.667968 18.070312 16.210937 20.425781 13.09375 3.226563 23.230469 13.367188 26.460937 26.457031 2.355469 9.546876 10.753907 16.210938 20.421876 16.210938h235.703124c1.789063.699219 3.6875 1.148438 5.644532 1.324219 2.695312.238281 4.828125 2.371093 5.066406 5.066406.566406 6.375 4.074219 12.117187 9.441406 15.539063v47.023437c0 4.703125 2.40625 8.957031 6.4375 11.382813 2.117188 1.273437 4.476563 1.917968 6.839844 1.917968 2.128906 0 4.265625-.523437 6.230469-1.566406l24.007812-12.738281 24.007813 12.738281c4.152344 2.203125 9.042968 2.074219 13.074218-.351562 4.03125-2.425782 6.4375-6.679688 6.4375-11.382813v-47.023437c5.363282-3.421876 8.871094-9.164063 9.4375-15.539063.238282-2.695313 2.371094-4.832031 5.070313-5.070313 6.671875-.589843 12.65625-4.40625 16.003906-10.207031zm-379.257812-10.914062c-4.570313-18.519531-18.914063-32.863281-37.433594-37.433594-2.828125-.695313-4.804687-3.105469-4.804687-5.859375v-201.101562c0-2.75 1.976562-5.160157 4.804687-5.855469 18.519531-4.570313 32.863281-18.914063 37.429687-37.433594.699219-2.828125 3.109376-4.800781 5.859376-4.800781h321.765624c2.75 0 5.160157 1.976562 5.855469 4.800781 4.570313 18.519531 18.914063 32.863281 37.433594 37.433594 2.828125.695312 4.804687 3.105469 4.804687 5.855469v165.289062c-3.347656-3.21875-7.730468-5.261719-12.460937-5.679688-2.699219-.242187-4.832031-2.375-5.070313-5.070312-.59375-6.675781-4.410156-12.660156-10.210937-16.007812-5.804687-3.351563-12.898437-3.664063-18.96875-.839844-2.460937 1.140625-5.371094.359375-6.929687-1.855469-3.851563-5.484375-10.148438-8.757813-16.847657-8.757813-6.703125 0-13 3.273438-16.847656 8.757813-1.558594 2.214844-4.472656 2.996094-6.925781 1.855469-6.078125-2.824219-13.167969-2.507813-18.972656.839844-5.800782 3.347656-9.617188 9.332031-10.210938 16.007812-.238281 2.695312-2.371094 4.828125-5.070312 5.070312-6.671876.589844-12.65625 4.410157-16.007813 10.210938s-3.664063 12.894531-.839844 18.96875c1.140625 2.457031.359375 5.371094-1.855469 6.925781-5.484374 3.851563-8.757812 10.148438-8.757812 16.847657 0 6.703124 3.273438 13 8.757812 16.847656 2.21875 1.558594 2.996094 4.46875 1.855469 6.925781-1.886719 4.0625-2.371093 8.578125-1.484375 12.859375h-223.011718c-2.75 0-5.160157-1.972656-5.855469-4.800781zm311.453125 74.074219c-3.898438-2.066407-8.554688-2.066407-12.453125 0l-22.289063 11.828124v-41.324218c1.621094-.3125 3.214844-.824219 4.742188-1.535156 2.460937-1.144532 5.371094-.359376 6.925781 1.855468 3.851563 5.480469 10.148437 8.753906 16.847656 8.753906 6.703125 0 13-3.273437 16.851563-8.753906 1.554687-2.21875 4.46875-3 6.925781-1.855468 1.527344.710937 3.121094 1.222656 4.742187 1.535156v41.324218zm61.882812-101.332032c-8.167968 5.734375-11.046875 16.46875-6.839844 25.523438.777344 1.671875.695313 3.546875-.226562 5.144531s-2.503906 2.609375-4.34375 2.773437c-9.945312.882813-17.800781 8.738282-18.683594 18.683594-.164062 1.839844-1.175781 3.421875-2.773437 4.34375-1.597657.921875-3.472657 1.003906-5.144531.230469-9.0625-4.210937-19.792969-1.332031-25.527344 6.835937-1.058594 1.511719-2.726563 2.378907-4.570313 2.378907s-3.511719-.867188-4.570312-2.378907c-3.964844-5.644531-10.3125-8.761718-16.847657-8.761718-2.921874 0-5.878906.625-8.675781 1.921875-1.675781.78125-3.550781.695312-5.148437-.226563s-2.609375-2.503906-2.773438-4.34375c-.882812-9.941406-8.738281-17.800781-18.683594-18.683594-1.839843-.164062-3.421874-1.175781-4.34375-2.773437-.925781-1.597656-1.007812-3.472656-.230468-5.144531 4.207031-9.054688 1.332031-19.789063-6.839844-25.523438-1.507812-1.0625-2.375-2.730468-2.375-4.574218s.867188-3.511719 2.375-4.570313c8.171875-5.738281 11.046875-16.472656 6.839844-25.523437-.777344-1.675782-.695313-3.550782.230468-5.148438.921876-1.597656 2.503907-2.609375 4.34375-2.773438 9.941407-.882812 17.800782-8.738281 18.683594-18.683593.164063-1.839844 1.175782-3.421875 2.773438-4.34375s3.476562-1.003907 5.144531-.226563c9.058594 4.207032 19.789063 1.328125 25.523437-6.839844 1.0625-1.511718 2.730469-2.375 4.574219-2.375s3.511719.863282 4.570313 2.375c5.734375 8.167969 16.472656 11.046876 25.523437 6.839844 1.675781-.777344 3.550781-.695312 5.148438.226563 1.597656.921875 2.605469 2.503906 2.769531 4.34375.882812 9.945312 8.742188 17.800781 18.6875 18.683593 1.835938.164063 3.421875 1.175782 4.34375 2.773438s1.003906 3.472656.226562 5.148438c-4.207031 9.050781-1.328124 19.785156 6.839844 25.523437 1.511719 1.0625 2.378906 2.726563 2.378906 4.570313 0 1.847656-.867187 3.511718-2.378906 4.574218zm0 0"/><path d="m394.488281 255.253906c-28.90625 0-52.425781 23.519532-52.425781 52.425782s23.519531 52.425781 52.425781 52.425781 52.425781-23.519531 52.425781-52.425781-23.519531-52.425782-52.425781-52.425782zm0 89.851563c-20.636719 0-37.425781-16.789063-37.425781-37.425781 0-20.632813 16.789062-37.421876 37.425781-37.421876s37.425781 16.789063 37.425781 37.421876c0 20.636718-16.789062 37.425781-37.425781 37.425781zm0 0"/></svg>