<?xml version="1.0" encoding="iso-8859-1"?>
<!-- Generator: Adobe Illustrator 19.0.0, SVG Export Plug-In . SVG Version: 6.00 Build 0)  -->
<svg version="1.1" id="Layer_1" xmlns="http://www.w3.org/2000/svg" xmlns:xlink="http://www.w3.org/1999/xlink" x="0px" y="0px"
	 viewBox="0 0 512 512" style="enable-background:new 0 0 512 512;" xml:space="preserve">
<rect id="SVGCleanerId_0" x="95.746" y="177.041" style="opacity:0.69;fill:#285493;enable-background:new    ;" width="0.233" height="0.233"/>
<path style="fill:#F2F2F2;" d="M402.916,462.31V20.195c0-6.95-5.634-12.584-12.585-12.584H58.483
	c-6.95,0-12.584,5.634-12.584,12.584v43.659v88.207v295.696v3.627c0,29.274,23.731,53.005,53.005,53.005h3.627L402.916,462.31z"/>
<g style="opacity:0.2;">
	<path d="M86.401,502.892c4.01,0.97,8.193,1.497,12.502,1.497h3.627l21.311-2.986L86.401,502.892z"/>
	<path d="M390.331,7.611h-53.784c6.95,0,12.585,5.634,12.585,12.584v449.648l53.784-7.535V20.195
		C402.916,13.245,397.281,7.611,390.331,7.611z"/>
</g>
<path style="fill:#285493;" d="M251.507,451.384h189.26h25.334c0,29.274-23.731,53.005-53.005,53.005H97.691h-0.934
	c29.274,0,53.005-23.731,53.005-53.005h38.063H251.507z"/>
<path style="opacity:0.17;enable-background:new    ;" d="M440.767,451.384h-31.162c0,29.274-23.731,53.005-53.005,53.005h56.497
	c29.274,0,53.005-23.731,53.005-53.005H440.767z"/>
<g>
	
		<rect id="SVGCleanerId_0_1_" x="95.746" y="177.041" style="opacity:0.69;fill:#285493;enable-background:new    ;" width="0.233" height="0.233"/>
</g>
<polygon style="fill:#59AAE8;" points="336.012,322.428 336.012,418.622 298.082,393.234 260.152,418.622 260.152,322.428 "/>
<g>
	<path style="opacity:0.69;fill:#285493;enable-background:new    ;" d="M206.499,57.503h138.193c8.393,0,15.26,6.867,15.26,15.261
		v0.66c0,8.393-6.867,15.26-15.26,15.26H109.987c-8.393,0-15.261-6.867-15.261-15.26v-0.66c0-8.393,6.867-15.261,15.261-15.261
		h36.568H206.499z"/>
	<path style="opacity:0.69;fill:#285493;enable-background:new    ;" d="M344.692,148.451H109.987
		c-8.393,0-15.261-6.867-15.261-15.26v-0.66c0-8.393,6.867-15.26,15.261-15.26h234.705c8.393,0,15.26,6.867,15.26,15.26v0.66
		C359.952,141.584,353.085,148.451,344.692,148.451z"/>
	<path style="opacity:0.69;fill:#285493;enable-background:new    ;" d="M204.516,208.22h-92.161c-8.393,0-15.26-6.867-15.26-15.26
		v-0.66c0-8.393,6.867-15.26,15.26-15.26h92.161c8.393,0,15.26,6.867,15.26,15.26v0.66
		C219.776,201.353,212.909,208.22,204.516,208.22z"/>
</g>
<circle style="fill:#EF403C;" cx="298.086" cy="283.443" r="70.437"/>
<circle style="fill:#F2F2F2;" cx="298.086" cy="283.443" r="41.749"/>
<path d="M466.103,443.773h-55.576V20.195C410.526,9.06,401.466,0,390.331,0H58.483C47.346,0,38.287,9.06,38.287,20.195v43.659
	c0,4.203,3.407,7.611,7.611,7.611s7.611-3.408,7.611-7.611V20.195c0-2.743,2.232-4.974,4.974-4.974h331.848
	c2.742,0,4.974,2.232,4.974,4.974v423.578H251.508c-4.204,0-7.611,3.408-7.611,7.611s3.407,7.611,7.611,7.611h206.346
	c-3.63,21.42-22.318,37.783-44.757,37.783H136.883c10.765-9.527,18.13-22.813,20.014-37.783h53.452c4.204,0,7.611-3.408,7.611-7.611
	s-3.407-7.611-7.611-7.611h-60.587c-4.204,0-7.611,3.408-7.611,7.611c0,24.671-19.785,44.793-44.32,45.366
	c-24.536-0.573-44.321-20.696-44.321-45.366V101.548c0-4.203-3.407-7.611-7.611-7.611s-7.611,3.408-7.611,7.611v349.837
	c0,32.332,25.446,58.829,57.362,60.526c0.362,0.053,0.731,0.089,1.108,0.089c0.214,0,0.424-0.012,0.637-0.015
	c0.098,0.004,0.196,0.015,0.296,0.015h1.212h3.626h310.568c33.424,0,60.616-27.191,60.616-60.616
	C473.714,447.181,470.306,443.773,466.103,443.773z"/>
<path d="M256.222,425.139c2.282,1.378,5.122,1.459,7.481,0.214l34.379-18.134l34.379,18.134c1.113,0.588,2.333,0.879,3.551,0.879
	c1.364,0,2.725-0.366,3.93-1.094c2.284-1.377,3.681-3.85,3.681-6.517v-71.846c19.671-14.186,32.511-37.28,32.511-63.329
	c0-43.039-35.015-78.052-78.052-78.052s-78.052,35.013-78.052,78.052c0,26.05,12.84,49.144,32.511,63.329v71.846
	C252.541,421.288,253.937,423.761,256.222,425.139z M328.401,406.002l-26.768-14.12c-2.221-1.172-4.88-1.172-7.102,0l-26.768,14.12
	v-50.634c9.326,3.947,19.572,6.13,30.319,6.13c10.747,0,20.993-2.184,30.319-6.13L328.401,406.002L328.401,406.002z
	 M235.252,283.446c0-34.645,28.185-62.83,62.83-62.83s62.83,28.185,62.83,62.83s-28.185,62.831-62.83,62.831
	S235.252,318.091,235.252,283.446z"/>
<path d="M298.082,332.802c27.215,0,49.357-22.141,49.357-49.357c0-27.215-22.141-49.356-49.357-49.356
	c-27.216,0-49.356,22.141-49.356,49.356C248.726,310.66,270.867,332.802,298.082,332.802z M298.082,249.312
	c18.821,0,34.135,15.312,34.135,34.134s-15.313,34.135-34.135,34.135c-18.821,0-34.134-15.313-34.134-34.135
	S279.261,249.312,298.082,249.312z"/>
<path d="M109.987,65.115h51.797c4.204,0,7.611-3.408,7.611-7.611s-3.407-7.611-7.611-7.611h-51.797
	c-12.611,0-22.87,10.26-22.87,22.871v0.66c0,12.611,10.26,22.871,22.87,22.871h234.705c12.611,0,22.87-10.26,22.87-22.871v-0.66
	c0-12.611-10.26-22.871-22.87-22.871H206.499c-4.204,0-7.611,3.408-7.611,7.611s3.407,7.611,7.611,7.611h138.193
	c4.217,0,7.648,3.431,7.648,7.65v0.66c0,4.217-3.431,7.65-7.648,7.65H109.987c-4.217,0-7.649-3.431-7.649-7.65v-0.66
	C102.338,68.546,105.769,65.115,109.987,65.115z"/>
<path d="M87.116,133.192c0,12.611,10.26,22.871,22.87,22.871h234.705c12.611,0,22.87-10.26,22.87-22.871v-0.661
	c0-12.611-10.26-22.87-22.87-22.87H109.987c-12.611,0-22.87,10.26-22.87,22.87V133.192z M102.338,132.531
	c0-4.217,3.431-7.649,7.649-7.649h234.705c4.217,0,7.648,3.431,7.648,7.649v0.661c0,4.217-3.431,7.65-7.648,7.65H109.987
	c-4.217,0-7.649-3.431-7.649-7.65V132.531z"/>
<path d="M227.386,192.3c0-12.611-10.26-22.871-22.87-22.871h-92.161c-12.611,0-22.87,10.26-22.87,22.871v0.66
	c0,12.611,10.26,22.871,22.87,22.871h92.161c12.611,0,22.87-10.26,22.87-22.871V192.3z M212.164,192.959
	c0,4.217-3.431,7.65-7.649,7.65h-92.161c-4.217,0-7.649-3.431-7.649-7.65v-0.66c0-4.217,3.431-7.65,7.649-7.65h92.161
	c4.217,0,7.649,3.431,7.649,7.65V192.959z"/>
<g>
</g>
<g>
</g>
<g>
</g>
<g>
</g>
<g>
</g>
<g>
</g>
<g>
</g>
<g>
</g>
<g>
</g>
<g>
</g>
<g>
</g>
<g>
</g>
<g>
</g>
<g>
</g>
<g>
</g>
</svg>
