<?xml version="1.0" encoding="utf-8"?>
<!-- Generator: Adobe Illustrator 23.0.1, SVG Export Plug-In . SVG Version: 6.00 Build 0)  -->
<svg version="1.1" id="Layer_1" xmlns="http://www.w3.org/2000/svg" xmlns:xlink="http://www.w3.org/1999/xlink" x="0px" y="0px"
	 viewBox="0 0 400.11 844.45" style="enable-background:new 0 0 400.11 844.45;" xml:space="preserve">
<style type="text/css">
	.st0{fill:#F0CE42;}
	.st1{fill:#F7ECBF;}
	.st2{fill:#F8ADA7;}
	.st3{fill:#FAF5E3;}
	.st4{fill:#907A68;}
</style>
<g>
	<g>
		<polygon class="st0" points="400.11,0 223.33,0 0,794.24 181.72,794.24 363.44,794.24 		"/>
		<ellipse class="st1" cx="181.72" cy="794.24" rx="181.72" ry="50.21"/>
	</g>
	<g>
		<path class="st2" d="M261.87,586.86c2.29,6.41-1.05,13.46-7.46,15.75c-6.41,2.29-13.46-1.05-15.75-7.46
			c-2.29-6.41,1.05-13.46,7.46-15.75C252.53,577.11,259.58,580.45,261.87,586.86z"/>
		
			<rect x="192.68" y="593.69" transform="matrix(0.9418 -0.3363 0.3363 0.9418 -197.0471 102.9606)" class="st1" width="12.08" height="53.31"/>
		
			<rect x="270" y="566.08" transform="matrix(0.9418 -0.3363 0.3363 0.9418 -183.2607 127.3583)" class="st1" width="12.08" height="53.31"/>
		<path class="st3" d="M297.57,574.11l-102.22,36.5c-3.2,1.14-6.72-0.52-7.86-3.72l-21.36-59.82l102.16-36.48
			c3.23-1.15,6.78,0.53,7.93,3.76L297.57,574.11z"/>
		
			<rect x="211.98" y="586.8" transform="matrix(0.9418 -0.3363 0.3363 0.9418 -193.6048 109.0506)" class="st3" width="12.08" height="53.31"/>
		
			<rect x="289.3" y="559.19" transform="matrix(0.9418 -0.3363 0.3363 0.9418 -179.8157 133.4456)" class="st3" width="12.08" height="53.31"/>
		<path class="st4" d="M184.78,536.89l-0.25-0.69c-1.36-3.81-5.55-5.8-9.36-4.44l-25.73,9.19c-3.81,1.36-5.8,5.55-4.44,9.36
			l0.25,0.69l-13.82,4.94c0,0,6.9,10.62,15.17-1.17l9.62,26.95c3.16,8.84,12.88,13.44,21.71,10.28l7.53-2.69
			c8.84-3.16,13.44-12.88,10.29-21.71l-9.62-26.95c13.86,3.9,12.48-8.7,12.48-8.7L184.78,536.89z"/>
		<path class="st4" d="M261.76,512.92l-32.37,11.56c2.9,2.6,6.28,4.64,9.64,6.63c3.97,2.35,8.06,4.75,12.61,5.54
			c7.22,1.25,14.51-1.75,20.79-5.52c2.8-1.69,5.54-3.6,7.6-6.14l-1.46-4.1C276.12,514.05,268.6,510.48,261.76,512.92z"/>
		<path class="st4" d="M231.23,549.18c2.75,2.06,5.38,4.34,7.42,7.1c2.04,2.76,3.48,6.06,3.6,9.49c0.21,5.98-3.8,11.69-9.24,14.17
			c-5.44,2.48-11.99,1.94-17.33-0.76c-5.34-2.69-9.52-7.36-12.34-12.63c-1.94-3.63-3.3-7.64-3.42-11.76
			c-0.12-4.12,1.09-8.35,3.78-11.47C210.69,535.24,224.81,544.36,231.23,549.18z"/>
		<path class="st3" d="M145.01,550.31l0.25,0.69l-13.82,4.94c0,0,6.9,10.62,15.17-1.17l6.49,18.17c4.48-2.11,8.25-5.66,10.21-10.19
			c1.07-2.47,1.59-5.16,1.72-7.85c0.19-4.12-0.59-8.27-2.19-12.06c-0.86-2.04-1.86-3.91-3.1-5.54l-10.27,3.67
			C145.64,542.31,143.65,546.5,145.01,550.31z"/>
	</g>
</g>
</svg>
