<?xml version="1.0" encoding="utf-8"?>
<!-- Generator: Adobe Illustrator 23.0.1, SVG Export Plug-In . SVG Version: 6.00 Build 0)  -->
<svg version="1.1" id="Layer_1" xmlns="http://www.w3.org/2000/svg" xmlns:xlink="http://www.w3.org/1999/xlink" x="0px" y="0px"
	 viewBox="0 0 205.82 41.9" style="enable-background:new 0 0 205.82 41.9;" xml:space="preserve">
<style type="text/css">
	.st0{fill:#2E3070;}
	.st1{fill:url(#SVGID_1_);}
	.st2{fill:url(#SVGID_2_);}
	.st3{fill:url(#SVGID_3_);}
	.st4{fill:url(#SVGID_4_);}
	.st5{fill:url(#SVGID_5_);}
	.st6{fill:url(#SVGID_6_);}
	.st7{fill:url(#SVGID_7_);}
	.st8{fill:url(#SVGID_8_);}
	.st9{fill:url(#SVGID_9_);}
	.st10{fill:#6B68AF;}
	.st11{fill:#BC9FCB;}
	.st12{fill:url(#SVGID_10_);}
</style>
<g>
	<path class="st0" d="M29.6,36.17l-0.4,0.13c-0.93,0.29-2.1,0.44-3.48,0.44c-1.59,0-3.95-0.15-7.01-0.46
		c-3.08-0.31-5.36-0.46-6.76-0.46c-1.9,0-3.22,0.08-4.02,0.24c-0.88,0.18-1.44,0.41-1.76,0.72c-0.34,0.34-0.5,0.89-0.5,1.67
		c0,0.93,0.24,1.88,0.72,2.82l0.2,0.39L7,41.51c1.16-0.41,2.51-0.61,4.01-0.61c1.69,0,4.24,0.33,7.58,0.99
		c3.4,0.67,6.09,1.01,7.98,1.01c1.3,0,2.24-0.23,2.89-0.69c0.69-0.5,1.03-1.41,1.03-2.72c0-1.04-0.23-2.03-0.7-2.93L29.6,36.17z"/>
	<path class="st0" d="M26.07,30.24c2.86-2.96,4.31-7.62,4.31-13.84c0-5.84-1.24-9.92-3.69-12.11C24.25,2.1,20.67,1,16.04,1
		C11.11,1,7.17,2.5,4.31,5.47C1.45,8.43,0,13.08,0,19.31c0,5.84,1.24,9.92,3.68,12.11C6.1,33.6,9.62,34.7,14.13,34.7
		C19.19,34.7,23.21,33.2,26.07,30.24z M10.34,8.66c0.92-1.51,2.42-2.25,4.58-2.25c2.09,0,3.66,0.74,4.8,2.26
		c1.16,1.54,1.75,4.89,1.75,9.96c0,4.02-0.48,6.85-1.44,8.43c-0.92,1.51-2.42,2.25-4.58,2.25c-2.07,0-3.63-0.77-4.78-2.35
		c-1.17-1.61-1.76-4.93-1.76-9.86C8.89,13.06,9.38,10.23,10.34,8.66z"/>
	<path class="st0" d="M64.37,1.46H53.49c-0.56,0-1.01,0.14-1.33,0.4c-0.35,0.29-0.52,0.73-0.52,1.31c0,0.67,0.15,1.39,0.45,2.12
		l0.13,0.31h2.47c0.08,2.26,0.12,7.12,0.12,14.46c0,3.58-0.39,5.98-1.17,7.13c-0.74,1.1-2.02,1.64-3.91,1.64
		c-1.78,0-3.04-0.61-3.85-1.87c-0.85-1.31-1.27-4.18-1.27-8.53c0-6.33,0.03-10.64,0.1-12.83h1.08c0.57,0,1-0.16,1.3-0.46
		c0.29-0.31,0.44-0.79,0.44-1.48c0-0.63-0.15-1.28-0.44-1.91l-0.13-0.29H35.66c-0.56,0-1.01,0.14-1.33,0.41
		C34,2.16,33.83,2.6,33.83,3.18c0,0.67,0.14,1.38,0.42,2.11l0.12,0.32h2.02c0.07,2.35,0.1,8.23,0.1,17.49
		c0,4.27,0.81,7.13,2.47,8.75c1.66,1.62,4.53,2.4,8.77,2.4c4.61,0,8.14-1.09,10.51-3.25c2.38-2.17,3.59-6.27,3.59-12.19
		c-0.01-6.6,0.01-11.03,0.08-13.2h1.28c0.57,0,1-0.16,1.3-0.46c0.29-0.31,0.44-0.79,0.44-1.48c0-0.63-0.15-1.28-0.44-1.91
		L64.37,1.46z"/>
	<path class="st0" d="M80.55,5.6c0.58,0,1.03-0.16,1.32-0.46c0.29-0.31,0.44-0.79,0.44-1.48c0-0.63-0.15-1.28-0.44-1.91l-0.13-0.29
		H68.87c-0.56,0-1.01,0.14-1.33,0.4c-0.35,0.29-0.52,0.73-0.52,1.31c0,0.67,0.15,1.39,0.45,2.12l0.13,0.31h2.91
		c0.07,1.98,0.11,5.06,0.12,9.16c0,7.64-0.03,12.63-0.1,14.88h-1.65c-0.56,0-1.01,0.14-1.33,0.4c-0.35,0.29-0.52,0.72-0.52,1.29
		c0,0.69,0.15,1.41,0.45,2.14l0.13,0.31h12.96c0.59,0,1.03-0.16,1.33-0.48c0.29-0.31,0.43-0.79,0.43-1.46c0-0.65-0.15-1.3-0.44-1.91
		l-0.14-0.29h-2.91c-0.06-2.23-0.1-7.22-0.1-14.85c-0.01-4.12,0.01-7.2,0.07-9.18H80.55z"/>
	<path class="st0" d="M109.16,26.33l-0.4,0.2c-3.24,1.61-7.17,2.43-11.69,2.43h-1.16c0.33-0.79,1.07-2.23,2.64-4.87
		c1.73-2.91,3.77-6.26,6.06-9.98c2.28-3.72,3.76-6.16,4.39-7.28c0.68-1.2,1-2.17,1-2.97c0-0.75-0.2-1.35-0.58-1.76
		c-0.41-0.44-1.2-0.64-2.49-0.64h-17.4c-1.4,0-2.4,0.21-3.07,0.63c-0.73,0.46-1.1,1.22-1.1,2.24c0,1.35,0.45,2.7,1.32,4.02
		l0.23,0.35l0.38-0.17c3.38-1.48,7.41-2.23,11.99-2.23h0.65c-0.58,1.22-1.57,3-2.96,5.31c-1.69,2.8-3.81,6.21-6.32,10.14
		c-2.5,3.92-4.03,6.3-4.56,7.08c-0.58,0.86-0.88,1.7-0.88,2.48c0,2.15,1.36,2.47,2.18,2.47h18.06c2.02,0,3.35-0.2,4.06-0.62
		c0.79-0.46,1.19-1.29,1.19-2.47c0-1.27-0.44-2.61-1.32-3.99L109.16,26.33z"/>
	<path class="st0" d="M136.88,26.33l-0.4,0.2c-3.24,1.61-7.17,2.43-11.69,2.43h-1.16c0.33-0.79,1.07-2.23,2.64-4.87
		c1.73-2.91,3.77-6.26,6.05-9.98c2.28-3.72,3.76-6.16,4.39-7.28c0.68-1.2,1-2.17,1-2.97c0-0.75-0.2-1.35-0.58-1.76
		c-0.41-0.44-1.2-0.64-2.49-0.64h-17.4c-1.39,0-2.4,0.21-3.07,0.63c-0.73,0.46-1.1,1.22-1.1,2.24c0,1.35,0.45,2.7,1.32,4.02
		l0.23,0.35l0.38-0.17c3.38-1.48,7.41-2.23,11.99-2.23h0.65c-0.58,1.22-1.57,3-2.96,5.31c-1.68,2.79-3.81,6.21-6.32,10.14
		c-2.5,3.92-4.03,6.3-4.56,7.08c-0.58,0.86-0.88,1.7-0.88,2.48c0,2.15,1.36,2.47,2.18,2.47h18.06c2.02,0,3.35-0.2,4.06-0.62
		c0.79-0.46,1.19-1.29,1.19-2.47c0-1.27-0.44-2.61-1.32-3.99L136.88,26.33z"/>
	<path class="st0" d="M159.81,27.21l-0.33,0.18c-2.15,1.18-4.26,1.77-6.28,1.77c-1.98,0-3.37-0.51-4.12-1.51
		c-0.72-0.95-1.13-2.27-1.23-3.92h8.02c2.23,0,3.67-0.38,4.38-1.15c0.71-0.76,1.05-1.95,1.05-3.65c0-3.24-0.77-5.67-2.3-7.2
		c-1.53-1.54-3.98-2.32-7.29-2.32c-3.69,0-6.68,1.2-8.89,3.57c-2.2,2.36-3.31,5.65-3.31,9.78c0,4,1.01,6.93,2.99,8.7
		c1.97,1.76,5.13,2.65,9.4,2.65c2.45,0,4.62-0.25,6.45-0.74c2.04-0.54,3.07-1.57,3.07-3.04c0-1.04-0.45-2.01-1.34-2.88L159.81,27.21
		z M148.62,15.54c0.5-0.77,1.21-1.15,2.17-1.15c0.92,0,1.61,0.31,2.11,0.95c0.52,0.66,0.79,1.64,0.79,2.89
		c0,0.61-0.1,0.84-0.14,0.89c-0.01,0.01-0.2,0.18-1.22,0.29c-0.87,0.1-2.16,0.15-3.83,0.15h-0.71
		C147.84,17.66,148.12,16.31,148.62,15.54z"/>
	<path class="st0" d="M187.97,26.33l-0.4,0.2c-3.24,1.61-7.17,2.43-11.69,2.43h-1.16c0.33-0.79,1.07-2.23,2.64-4.87
		c1.73-2.91,3.77-6.26,6.05-9.98c2.28-3.72,3.76-6.16,4.39-7.28c0.68-1.2,1-2.17,1-2.97c0-0.75-0.2-1.35-0.58-1.76
		c-0.41-0.44-1.2-0.64-2.49-0.64h-17.4c-1.39,0-2.4,0.21-3.07,0.63c-0.73,0.46-1.1,1.22-1.1,2.24c0,1.35,0.45,2.7,1.32,4.02
		l0.23,0.35l0.38-0.17c3.38-1.48,7.41-2.23,11.99-2.23h0.65c-0.58,1.22-1.57,3-2.96,5.31c-1.68,2.79-3.81,6.21-6.32,10.14
		c-2.5,3.92-4.03,6.3-4.56,7.08c-0.58,0.86-0.88,1.7-0.88,2.48c0,2.15,1.36,2.47,2.18,2.47h18.06c2.02,0,3.35-0.2,4.06-0.62
		c0.79-0.46,1.19-1.29,1.19-2.47c0-1.27-0.44-2.61-1.32-3.99L187.97,26.33z"/>
	<path class="st0" d="M204.6,27.68c-0.79-0.63-1.96-0.94-3.57-0.94c-1.45,0-2.61,0.31-3.45,0.92c-0.89,0.65-1.34,1.59-1.34,2.81
		c0,1.21,0.41,2.15,1.22,2.81c0.79,0.64,1.96,0.95,3.57,0.95c1.45,0,2.61-0.31,3.45-0.94c0.89-0.66,1.34-1.6,1.34-2.82
		C205.82,29.27,205.41,28.33,204.6,27.68z"/>
</g>
<g>
	<linearGradient id="SVGID_1_" gradientUnits="userSpaceOnUse" x1="-23.0027" y1="30.0681" x2="136.4601" y2="60.511">
		<stop  offset="0" style="stop-color:#6B68AF"/>
		<stop  offset="1" style="stop-color:#BC9FCB"/>
	</linearGradient>
	<path class="st1" d="M29.6,35.17l-0.4,0.13c-0.93,0.29-2.1,0.44-3.48,0.44c-1.59,0-3.95-0.15-7.01-0.46
		c-3.08-0.31-5.36-0.46-6.76-0.46c-1.9,0-3.22,0.08-4.02,0.24c-0.88,0.18-1.44,0.41-1.76,0.72c-0.34,0.34-0.5,0.89-0.5,1.67
		c0,0.93,0.24,1.88,0.72,2.82l0.2,0.39L7,40.51c1.16-0.41,2.51-0.61,4.01-0.61c1.69,0,4.24,0.33,7.58,0.99
		c3.4,0.67,6.09,1.01,7.98,1.01c1.3,0,2.24-0.23,2.89-0.69c0.69-0.5,1.03-1.41,1.03-2.72c0-1.04-0.23-2.03-0.7-2.93L29.6,35.17z"/>
	<linearGradient id="SVGID_2_" gradientUnits="userSpaceOnUse" x1="-19.2271" y1="10.2912" x2="140.2357" y2="40.734">
		<stop  offset="0" style="stop-color:#6B68AF"/>
		<stop  offset="1" style="stop-color:#BC9FCB"/>
	</linearGradient>
	<path class="st2" d="M26.07,29.24c2.86-2.96,4.31-7.62,4.31-13.84c0-5.84-1.24-9.92-3.69-12.11C24.25,1.1,20.67,0,16.04,0
		C11.11,0,7.17,1.5,4.31,4.47C1.45,7.43,0,12.08,0,18.31c0,5.84,1.24,9.92,3.68,12.11C6.1,32.6,9.62,33.7,14.13,33.7
		C19.19,33.7,23.21,32.2,26.07,29.24z M10.34,7.66c0.92-1.51,2.42-2.25,4.58-2.25c2.09,0,3.66,0.74,4.8,2.26
		c1.16,1.54,1.75,4.89,1.75,9.96c0,4.02-0.48,6.85-1.44,8.43c-0.92,1.51-2.42,2.25-4.58,2.25c-2.07,0-3.63-0.77-4.78-2.35
		c-1.17-1.61-1.76-4.93-1.76-9.86C8.89,12.06,9.38,9.23,10.34,7.66z"/>
	<linearGradient id="SVGID_3_" gradientUnits="userSpaceOnUse" x1="-17.8316" y1="2.9814" x2="141.6312" y2="33.4243">
		<stop  offset="0" style="stop-color:#6B68AF"/>
		<stop  offset="1" style="stop-color:#BC9FCB"/>
	</linearGradient>
	<path class="st3" d="M64.37,0.46H53.49c-0.56,0-1.01,0.14-1.33,0.4c-0.35,0.29-0.52,0.73-0.52,1.31c0,0.67,0.15,1.39,0.45,2.12
		l0.13,0.31h2.47c0.08,2.26,0.12,7.12,0.12,14.46c0,3.58-0.39,5.98-1.17,7.13c-0.74,1.1-2.02,1.64-3.91,1.64
		c-1.78,0-3.04-0.61-3.85-1.87c-0.85-1.31-1.27-4.18-1.27-8.53c0-6.33,0.03-10.64,0.1-12.83h1.08c0.57,0,1-0.16,1.3-0.46
		c0.29-0.31,0.44-0.79,0.44-1.48c0-0.63-0.15-1.28-0.44-1.91l-0.13-0.29H35.66c-0.56,0-1.01,0.14-1.33,0.41
		C34,1.16,33.83,1.6,33.83,2.18c0,0.67,0.14,1.38,0.42,2.11l0.12,0.32h2.02c0.07,2.35,0.1,8.23,0.1,17.49
		c0,4.27,0.81,7.13,2.47,8.75c1.66,1.62,4.53,2.4,8.77,2.4c4.61,0,8.14-1.09,10.51-3.25c2.38-2.17,3.59-6.27,3.59-12.19
		c-0.01-6.6,0.01-11.03,0.08-13.2h1.28c0.57,0,1-0.16,1.3-0.46c0.29-0.31,0.44-0.79,0.44-1.48c0-0.63-0.15-1.28-0.44-1.91
		L64.37,0.46z"/>
	<linearGradient id="SVGID_4_" gradientUnits="userSpaceOnUse" x1="-17.0915" y1="-0.8952" x2="142.3713" y2="29.5477">
		<stop  offset="0" style="stop-color:#6B68AF"/>
		<stop  offset="1" style="stop-color:#BC9FCB"/>
	</linearGradient>
	<path class="st4" d="M80.55,4.6c0.58,0,1.03-0.16,1.32-0.46c0.29-0.31,0.44-0.79,0.44-1.48c0-0.63-0.15-1.28-0.44-1.91l-0.13-0.29
		H68.87c-0.56,0-1.01,0.14-1.33,0.4c-0.35,0.29-0.52,0.73-0.52,1.31c0,0.67,0.15,1.39,0.45,2.12l0.13,0.31h2.91
		c0.07,1.98,0.11,5.06,0.12,9.16c0,7.64-0.03,12.63-0.1,14.88h-1.65c-0.56,0-1.01,0.14-1.33,0.4c-0.35,0.29-0.52,0.72-0.52,1.29
		c0,0.69,0.15,1.41,0.45,2.14l0.13,0.31h12.96c0.59,0,1.03-0.16,1.33-0.48c0.29-0.31,0.43-0.79,0.43-1.46c0-0.65-0.15-1.3-0.44-1.91
		l-0.14-0.29h-2.91c-0.06-2.23-0.1-7.22-0.1-14.85c-0.01-4.12,0.01-7.2,0.07-9.18H80.55z"/>
	<linearGradient id="SVGID_5_" gradientUnits="userSpaceOnUse" x1="-16.2908" y1="-5.0893" x2="143.172" y2="25.3535">
		<stop  offset="0" style="stop-color:#6B68AF"/>
		<stop  offset="1" style="stop-color:#BC9FCB"/>
	</linearGradient>
	<path class="st5" d="M109.16,25.33l-0.4,0.2c-3.24,1.61-7.17,2.43-11.69,2.43h-1.16c0.33-0.79,1.07-2.23,2.64-4.87
		c1.73-2.91,3.77-6.26,6.06-9.98c2.28-3.72,3.76-6.16,4.39-7.28c0.68-1.2,1-2.17,1-2.97c0-0.75-0.2-1.35-0.58-1.76
		c-0.41-0.44-1.2-0.64-2.49-0.64h-17.4c-1.4,0-2.4,0.21-3.07,0.63c-0.73,0.46-1.1,1.22-1.1,2.24c0,1.35,0.45,2.7,1.32,4.02
		l0.23,0.35l0.38-0.17c3.38-1.48,7.41-2.23,11.99-2.23h0.65c-0.58,1.22-1.57,3-2.96,5.31c-1.69,2.8-3.81,6.21-6.32,10.14
		c-2.5,3.92-4.03,6.3-4.56,7.08c-0.58,0.86-0.88,1.7-0.88,2.48c0,2.15,1.36,2.47,2.18,2.47h18.06c2.02,0,3.35-0.2,4.06-0.62
		c0.79-0.46,1.19-1.29,1.19-2.47c0-1.27-0.44-2.61-1.32-3.99L109.16,25.33z"/>
	<linearGradient id="SVGID_6_" gradientUnits="userSpaceOnUse" x1="-15.3159" y1="-10.1958" x2="144.1468" y2="20.2471">
		<stop  offset="0" style="stop-color:#6B68AF"/>
		<stop  offset="1" style="stop-color:#BC9FCB"/>
	</linearGradient>
	<path class="st6" d="M136.88,25.33l-0.4,0.2c-3.24,1.61-7.17,2.43-11.69,2.43h-1.16c0.33-0.79,1.07-2.23,2.64-4.87
		c1.73-2.91,3.77-6.26,6.05-9.98c2.28-3.72,3.76-6.16,4.39-7.28c0.68-1.2,1-2.17,1-2.97c0-0.75-0.2-1.35-0.58-1.76
		c-0.41-0.44-1.2-0.64-2.49-0.64h-17.4c-1.39,0-2.4,0.21-3.07,0.63c-0.73,0.46-1.1,1.22-1.1,2.24c0,1.35,0.45,2.7,1.32,4.02
		l0.23,0.35l0.38-0.17c3.38-1.48,7.41-2.23,11.99-2.23h0.65c-0.58,1.22-1.57,3-2.96,5.31c-1.68,2.79-3.81,6.21-6.32,10.14
		c-2.5,3.92-4.03,6.3-4.56,7.08c-0.58,0.86-0.88,1.7-0.88,2.48c0,2.15,1.36,2.47,2.18,2.47h18.06c2.02,0,3.35-0.2,4.06-0.62
		c0.79-0.46,1.19-1.29,1.19-2.47c0-1.27-0.44-2.61-1.32-3.99L136.88,25.33z"/>
	<linearGradient id="SVGID_7_" gradientUnits="userSpaceOnUse" x1="-15.1564" y1="-11.0314" x2="144.3064" y2="19.4115">
		<stop  offset="0" style="stop-color:#6B68AF"/>
		<stop  offset="1" style="stop-color:#BC9FCB"/>
	</linearGradient>
	<path class="st7" d="M159.81,26.21l-0.33,0.18c-2.15,1.18-4.26,1.77-6.28,1.77c-1.98,0-3.37-0.51-4.12-1.51
		c-0.72-0.95-1.13-2.27-1.23-3.92h8.02c2.23,0,3.67-0.38,4.38-1.15c0.71-0.76,1.05-1.95,1.05-3.65c0-3.24-0.77-5.67-2.3-7.2
		c-1.53-1.54-3.98-2.32-7.29-2.32c-3.69,0-6.68,1.2-8.89,3.57c-2.2,2.36-3.31,5.65-3.31,9.78c0,4,1.01,6.93,2.99,8.7
		c1.97,1.76,5.13,2.65,9.4,2.65c2.45,0,4.62-0.25,6.45-0.74c2.04-0.54,3.07-1.57,3.07-3.04c0-1.04-0.45-2.01-1.34-2.88L159.81,26.21
		z M148.62,14.54c0.5-0.77,1.21-1.15,2.17-1.15c0.92,0,1.61,0.31,2.11,0.95c0.52,0.66,0.79,1.64,0.79,2.89
		c0,0.61-0.1,0.84-0.14,0.89c-0.01,0.01-0.2,0.18-1.22,0.29c-0.87,0.1-2.16,0.15-3.83,0.15h-0.71
		C147.84,16.66,148.12,15.31,148.62,14.54z"/>
	<linearGradient id="SVGID_8_" gradientUnits="userSpaceOnUse" x1="-13.5195" y1="-19.6054" x2="145.9432" y2="10.8375">
		<stop  offset="0" style="stop-color:#6B68AF"/>
		<stop  offset="1" style="stop-color:#BC9FCB"/>
	</linearGradient>
	<path class="st8" d="M187.97,25.33l-0.4,0.2c-3.24,1.61-7.17,2.43-11.69,2.43h-1.16c0.33-0.79,1.07-2.23,2.64-4.87
		c1.73-2.91,3.77-6.26,6.05-9.98c2.28-3.72,3.76-6.16,4.39-7.28c0.68-1.2,1-2.17,1-2.97c0-0.75-0.2-1.35-0.58-1.76
		c-0.41-0.44-1.2-0.64-2.49-0.64h-17.4c-1.39,0-2.4,0.21-3.07,0.63c-0.73,0.46-1.1,1.22-1.1,2.24c0,1.35,0.45,2.7,1.32,4.02
		l0.23,0.35l0.38-0.17c3.38-1.48,7.41-2.23,11.99-2.23h0.65c-0.58,1.22-1.57,3-2.96,5.31c-1.68,2.79-3.81,6.21-6.32,10.14
		c-2.5,3.92-4.03,6.3-4.56,7.08c-0.58,0.86-0.88,1.7-0.88,2.48c0,2.15,1.36,2.47,2.18,2.47h18.06c2.02,0,3.35-0.2,4.06-0.62
		c0.79-0.46,1.19-1.29,1.19-2.47c0-1.27-0.44-2.61-1.32-3.99L187.97,25.33z"/>
	<linearGradient id="SVGID_9_" gradientUnits="userSpaceOnUse" x1="-15.0191" y1="-11.7504" x2="144.4436" y2="18.6925">
		<stop  offset="0" style="stop-color:#6B68AF"/>
		<stop  offset="1" style="stop-color:#BC9FCB"/>
	</linearGradient>
	<path class="st9" d="M204.6,26.68c-0.79-0.63-1.96-0.94-3.57-0.94c-1.45,0-2.61,0.31-3.45,0.92c-0.89,0.65-1.34,1.59-1.34,2.81
		c0,1.21,0.41,2.15,1.22,2.81c0.79,0.64,1.96,0.95,3.57,0.95c1.45,0,2.61-0.31,3.45-0.94c0.89-0.66,1.34-1.6,1.34-2.82
		C205.82,28.27,205.41,27.33,204.6,26.68z"/>
</g>
<rect x="-372.88" y="62.97" class="st10" width="21.74" height="22.47"/>
<rect x="-409.37" y="62" class="st11" width="21.74" height="22.47"/>
<linearGradient id="SVGID_10_" gradientUnits="userSpaceOnUse" x1="-323.1081" y1="66.6735" x2="-305.8317" y2="81.7852">
	<stop  offset="0" style="stop-color:#6B68AF"/>
	<stop  offset="1" style="stop-color:#BC9FCB"/>
</linearGradient>
<rect x="-326.25" y="62.24" class="st12" width="22.95" height="23.44"/>
</svg>
